<?xml version="1.0" encoding="UTF-8" standalone="no"?>
<!-- Created with Inkscape (http://www.inkscape.org/) -->

<svg
   xmlns:dc="http://purl.org/dc/elements/1.1/"
   xmlns:cc="http://creativecommons.org/ns#"
   xmlns:rdf="http://www.w3.org/1999/02/22-rdf-syntax-ns#"
   xmlns:svg="http://www.w3.org/2000/svg"
   xmlns="http://www.w3.org/2000/svg"
   xmlns:sodipodi="http://sodipodi.sourceforge.net/DTD/sodipodi-0.dtd"
   xmlns:inkscape="http://www.inkscape.org/namespaces/inkscape"
   width="210mm"
   height="297mm"
   viewBox="0 0 744.09448819 1052.3622047"
   id="svg2"
   version="1.1"
   inkscape:version="0.91 r13725"
   sodipodi:docname="quantum_transport.svg"
   inkscape:export-filename="/Users/alansanders/Documents/PhD/GitHub/phd-thesis/2_theory/figures/quantum_transport.png"
   inkscape:export-xdpi="300"
   inkscape:export-ydpi="300">
  <defs
     id="defs4">
    <marker
       inkscape:stockid="Arrow2Mend"
       orient="auto"
       refY="0.0"
       refX="0.0"
       id="marker4282"
       style="overflow:visible;"
       inkscape:isstock="true">
      <path
         id="path4284"
         style="fill-rule:evenodd;stroke-width:0.625;stroke-linejoin:round;stroke:#000000;stroke-opacity:1;fill:#000000;fill-opacity:1"
         d="M 8.7185878,4.0337352 L -2.2072895,0.016013256 L 8.7185884,-4.0017078 C 6.9730900,-1.6296469 6.9831476,1.6157441 8.7185878,4.0337352 z "
         transform="scale(0.6) rotate(180) translate(0,0)" />
    </marker>
    <marker
       inkscape:isstock="true"
       style="overflow:visible"
       id="marker4224"
       refX="0.0"
       refY="0.0"
       orient="auto"
       inkscape:stockid="Arrow2Mstart">
      <path
         transform="scale(0.6) translate(0,0)"
         d="M 8.7185878,4.0337352 L -2.2072895,0.016013256 L 8.7185884,-4.0017078 C 6.9730900,-1.6296469 6.9831476,1.6157441 8.7185878,4.0337352 z "
         style="fill-rule:evenodd;stroke-width:0.625;stroke-linejoin:round;stroke:#000000;stroke-opacity:1;fill:#000000;fill-opacity:1"
         id="path4226" />
    </marker>
    <marker
       inkscape:stockid="Arrow2Mend"
       orient="auto"
       refY="0.0"
       refX="0.0"
       id="marker5390"
       style="overflow:visible;"
       inkscape:isstock="true">
      <path
         id="path5392"
         style="fill-rule:evenodd;stroke-width:0.625;stroke-linejoin:round;stroke:#000000;stroke-opacity:1;fill:#000000;fill-opacity:1"
         d="M 8.7185878,4.0337352 L -2.2072895,0.016013256 L 8.7185884,-4.0017078 C 6.9730900,-1.6296469 6.9831476,1.6157441 8.7185878,4.0337352 z "
         transform="scale(0.6) rotate(180) translate(0,0)" />
    </marker>
    <marker
       inkscape:isstock="true"
       style="overflow:visible;"
       id="marker4984"
       refX="0.0"
       refY="0.0"
       orient="auto"
       inkscape:stockid="Arrow2Mend"
       inkscape:collect="always">
      <path
         transform="scale(0.6) rotate(180) translate(0,0)"
         d="M 8.7185878,4.0337352 L -2.2072895,0.016013256 L 8.7185884,-4.0017078 C 6.9730900,-1.6296469 6.9831476,1.6157441 8.7185878,4.0337352 z "
         style="fill-rule:evenodd;stroke-width:0.625;stroke-linejoin:round;stroke:#000000;stroke-opacity:1;fill:#000000;fill-opacity:1"
         id="path4986" />
    </marker>
    <marker
       inkscape:isstock="true"
       style="overflow:visible;"
       id="marker4924"
       refX="0.0"
       refY="0.0"
       orient="auto"
       inkscape:stockid="Arrow2Mend"
       inkscape:collect="always">
      <path
         transform="scale(0.6) rotate(180) translate(0,0)"
         d="M 8.7185878,4.0337352 L -2.2072895,0.016013256 L 8.7185884,-4.0017078 C 6.9730900,-1.6296469 6.9831476,1.6157441 8.7185878,4.0337352 z "
         style="fill-rule:evenodd;stroke-width:0.625;stroke-linejoin:round;stroke:#000000;stroke-opacity:1;fill:#000000;fill-opacity:1"
         id="path4926" />
    </marker>
    <marker
       inkscape:stockid="Arrow2Mstart"
       orient="auto"
       refY="0.0"
       refX="0.0"
       id="Arrow2Mstart"
       style="overflow:visible"
       inkscape:isstock="true"
       inkscape:collect="always">
      <path
         id="path4602"
         style="fill-rule:evenodd;stroke-width:0.625;stroke-linejoin:round;stroke:#000000;stroke-opacity:1;fill:#000000;fill-opacity:1"
         d="M 8.7185878,4.0337352 L -2.2072895,0.016013256 L 8.7185884,-4.0017078 C 6.9730900,-1.6296469 6.9831476,1.6157441 8.7185878,4.0337352 z "
         transform="scale(0.6) translate(0,0)" />
    </marker>
    <style
       id="style4417"
       type="text/css">
*{stroke-linecap:butt;stroke-linejoin:round;}
  </style>
    <defs
       id="defs4425">
      <path
         inkscape:connector-curvature="0"
         d="m 21.52,-29.9875 0,23.78246 0.0997,0 0.0997,0 0.0997,0 0.0998,0 0.0997,0 0.0997,0 0.0997,0 0.0997,0 0.0997,0 0.0998,0 0.0997,0 0.0997,0 0.0997,0 0.0997,0 0.0997,0 0.0997,0 0.0998,0 0.0997,0 0.0997,0 0.0997,0 0.0997,0 0.0997,0 0.0998,0 0.0997,0 0.0997,0 0.0997,0 0.0997,0 0.0997,0 0.0997,0 0.0998,0 0.0997,0 0.0997,0 0.0997,0 0.0997,0 0.0997,0 0.0997,0 0.0998,0 0.0997,0 0.0997,0 0.0997,0 0.0997,0 0.0997,0 0.0998,0 0.0997,0 0.0997,0 0.0997,0 0.0997,0 0.0997,0 0.0997,0 0.0998,0 0.0997,0 0.0997,0 0.0997,0 0.0997,0 0.0997,0 0.0998,0 0.0997,0 0.0997,0 0.0997,0 0.0997,0 0.0997,0 0.0997,0 0.0998,0 0.0997,0 0.0997,0 0.0997,0 0.0997,0 0.0997,0 0.0998,0 0.0997,0 0.0997,0 0.0997,0 0.0997,0 0.0997,0 0.0997,0 0.0998,0 0.0997,0 0.0997,0 0.0997,0 0.0997,0 0.0997,0 0.0997,0 0.0998,0 0.0997,0 0.0997,0 0.0997,0 0.0997,0 0.0997,0 0.0998,0 0.0997,0 0.0997,0 0.0997,0 0.0997,0 0.0997,0 0.0997,0 0.0998,0 0.0997,0 0.0997,0 0.0997,0 0.0997,0 0.0997,0 0.0998,0 0.0997,0 0.0997,0 0.0997,0 0.0997,0 0.0997,0 0.0997,0 0.0998,0 0.0997,0 0.0997,0 0.0997,0 0.0997,0 0.0997,0 0.0998,0 0.0997,0 0.0997,0 0.0997,0 0.0997,0 0.0997,0 0.0997,0 0.0998,0 0.0997,0 0.0997,0 0.0997,0 0.0997,0 0.0997,0 0.0998,0 0.0997,0 0.0997,0 0.0997,0 0.0997,0 0.0997,0 0.0997,0 0.0998,0 0.0997,0 0.0997,0 0.0997,0 0.0997,0 0.0997,0 0.0997,0 0.0998,0 0.0997,0 0.0997,0 0.0997,0 0.0997,0 0.0997,0 0.0998,0 0.0997,0 0.0997,0 0.0997,0 0.0997,0 0.0997,0 0.0997,0 0.0998,0 0.0997,0 0.0997,0 0.0997,0 0.0997,0 0.0997,0 0.0998,0 0.0997,0 0.0997,0 0.0997,0 0.0997,0 0.0997,0 0.0997,0 0.0998,0 0.0997,0 0.0997,0 0.0997,0 0.0997,0 0.0997,0 0.0998,0 0.0997,0 0.0997,0 0.0997,0 0.0997,0 0.0997,0 0.0997,0 0.0998,0 0.0997,0 0.0997,0 0.0997,0 0.0997,0 0.0997,0 0.0997,0 0.0998,0 0.0997,0 0.0997,0 0.0997,0 0.0997,0 0.0997,0 0.0998,0 0.0997,0 0.0997,0 0.0997,0 0.0997,0 0.0997,0 0.0997,0 0.0998,0 0.0997,0 0.0997,0 0.0997,0 0.0997,0 0.0997,0 0.0998,0 0.0997,0 0.0997,0 0.0997,0 0.0997,0 0.0997,0 0.0997,0 0.0998,0 0.0997,0 0.0997,0 0.0997,0 0.0997,0 0.0997,0 0.0998,0 0.0997,0 0.0997,0 0.0997,0 0.0997,0 0.0997,0 0.0997,0 0.0998,0 0.0997,0 0.0997,0 0.0997,0 0.0997,0 0.0997,0 0.0997,0 0.0998,0 0.0997,0 0.0997,0 0.0997,0 0.0997,0 0.0997,0 0.0998,0 0.0997,0 0.0997,0 0.0997,0 0.0997,0 0.0997,0 0.0997,0 0.0998,0 0.0997,0 0.0997,0 0.0997,0 0.0997,0 0.0997,0 0.0998,0 0.0997,0 0.0997,0 0.0997,0 0.0997,0 0.0997,0 0.0997,0 0.0998,0 0.0997,0 0.0997,0 0.0997,0 0.0997,0 0.0997,0 0.0998,0 0.0997,0 0.0997,0 0.0997,0 0.0997,0 0.0997,0 0.0997,0 0.0998,0 0.0997,0 0.0997,0 0.0997,0 0.0997,0 0.0997,0 0.0998,0 0.0997,0 0.0997,0 0.0997,0 0.0997,0 0.0997,0 0.0997,0 0.0998,0 0.0997,0 0.0997,0 0.0997,0 0.0997,0 0.0997,0 0.0997,0 0.0998,0 0.0997,0 0.0997,0 0.0997,0 0.0997,0 0.0997,0 0.0998,0 0.0997,0 0.0997,0 0.0997,0 0.0997,0 0.0997,0 0.0997,0 0.0998,0 0.0997,0 0.0997,0 0.0997,0 0.0997,0 0.0997,0 0.0998,0 0.0997,0 0.0997,0 0.0997,0 0.0997,0 0.0997,0 0.0997,0 0.0998,0 0.0997,0 0.0997,0 0.0997,0 0.0997,0 0.0997,0 0.0998,0 0.0997,0 0.0997,0 0.0997,0 0.0997,0 0.0997,0 0.0997,0 0.0998,0 0.0997,0 0.0997,0 0.0997,0 0.0997,0 0.0997,0 0.0997,0 0.0998,0 0.0997,0 0.0997,0 0.0997,0 0.0997,0 0.0997,0 0.0998,0 0.0997,0 0.0997,0 0.0997,0 0.0997,0 0.0997,0 0.0997,0 0.0998,0 0.0997,0 0.0997,0 0.0997,0 0.0997,0 0.0997,0 0.0998,0 0.0997,0 0.0997,0 0.0997,0 0.0997,0 0.0997,0 0.0997,0 0.0998,0 0.0997,0 0.0997,0 0.0997,0 0.0997,0 0.0997,0 0.0998,0 0.0997,0 0.0997,0 0.0997,0 0.0997,0 0.0997,0 0.0997,0 0.0998,0 0.0997,0 0.0997,0 0.0997,0 0.0997,0 0.0997,0 0.0998,0 0.0997,0 0.0997,0 0.0997,0 0.0997,0 0.0997,0 0.0997,0 0.0998,0 0.0997,0 0.0997,0 0.0997,0 0.0997,0 0.0997,0 0.0997,0 0.0998,0 0.0997,0 0.0997,0 0.0997,0 0.0997,0 0.0997,0 0.0998,0 0.0997,0 0.0997,0 0.0997,0 0.0997,0 0.0997,0 0.0997,0 0.0998,0 0.0997,0 0.0997,0 0.0997,0 0.0997,0 0.0997,0 0.0998,0 0.0997,0 0.0997,0 0.0997,0 0.0997,0 0.0997,0 0.0997,0 0.0998,0 0.0997,0 0.0997,0 0.0997,0 0.0997,0 0.0997,0 0.0998,0 0.0997,0 0.0997,0 0.0997,0 0.0997,0 0.0997,0 0.0997,0 0.0998,0 0.0997,0 0.0997,0 0.0997,0 0.0997,0 0.0997,0 0.0997,0 0.0998,0 0.0997,0 0.0997,0 0.0997,0 0.0997,0 0.0997,0 0.0998,0 0.0997,0 0.0997,0 0.0997,0 0.0997,0 0.0997,0 0.0997,0 0.0998,0 0.0997,0 0.0997,0 0.0997,0 0.0997,0 0.0997,0 0.0998,0 0.0997,0 0.0997,0 0.0997,0 0.0997,0 0.0997,0 0.0997,0 0.0998,0 0.0997,0 0.0997,0 0.0997,0 0.0997,0 0.0997,0 0.0998,0 0.0997,0 0.0997,0 0.0997,0 0.0997,0 0.0997,0 0.0997,0 0.0998,0 0.0997,0 0.0997,0 0.0997,0 0.0997,0 0.0997,0 0.0997,0 0.0998,0 0.0997,0 0.0997,0 0.0997,0 0.0997,0 0.0997,0 0.0998,0 0.0997,0 0.0997,0 0.0997,0 0.0997,0 0.0997,0 0.0997,0 0.0998,0 0.0997,0 0.0997,0 0.0997,0 0.0997,0 0.0997,0 0.0998,0 0.0997,0 0.0997,0 0.0997,0 0.0997,0 0.0997,0 0.0997,0 0.0998,0 0.0997,0 0.0997,0 0.0997,0 0.0997,0 0.0997,0 0.0998,0 0.0997,0 0.0997,0 0.0997,0 0.0997,0 0.0997,0 0.0997,0 0.0998,0 0.0997,0 0.0997,0 0.0997,0 0.0997,0 0.0997,0 0.0998,0 0.0997,0 0.0997,0 0.0997,0 0.0997,0 0.0997,0 0.0997,0 0.0998,0 0.0997,0 0.0997,0 0.0997,0 0.0997,0 0.0997,0 0.0997,0 0.0998,0 0.0997,0 0.0997,0 0.0997,0 0.0997,0 0.0997,0 0.0998,0 0.0997,0 0.0997,0 0.0997,0 0.0997,0 0.0997,0 0.0997,0 0.0998,0 0.0997,0 0.0997,0 0.0997,0 0.0997,0 0.0997,0 0.0998,0 0.0997,0 0.0997,0 0.0997,0 0.0997,0 0.0997,0 0.0997,0 0.0998,0 0.0997,0 0.0997,0 0.0997,0 0.0997,0 0.0997,0 0.0998,0 0.0997,0 0.0997,0 0.0997,0 0.0997,0 0.0997,0 0.0997,0 0.0998,0 0.0997,0 0.0997,0 0.0997,0 0.0997,0 0.0997,0 0.0997,0 0.0998,0 0.0997,0 0.0997,0 0.0997,0 0.0997,0 0.0997,0 0.0998,0 0.0997,0 0.0997,0 0.0997,0 0.0997,0 0.0997,0 0.0997,0 0.0998,0 0.0997,0 0.0997,0 0.0997,0 0.0997,0 0.0997,0 0.0998,0 0.0997,0 0.0997,0 0.0997,0 0.0997,0 0.0997,0 0.0997,0 0.0998,0 0.0997,0 0.0997,0 0.0997,0 0.0997,0 0.0997,0 0.0998,0 0.0997,0 0.0997,0 0.0997,0 0.0997,0 0.0997,0 0.0997,0 0.0998,0 0.0997,0 0.0997,0 0.0997,0 0.0997,0 0.0997,0 0.0998,0 0.0997,0 0.0997,0 0.0997,0 0.0997,0 0.0997,0 0.0997,0 0.0998,0 0.0997,0 0.0997,0 0.0997,0 0.0997,0 0.0997,0 0.0997,0 0.0998,0 0.0997,0 0.0997,0 0.0997,0 0.0997,0 0.0997,0 0.0998,0 0.0997,0 0.0997,0 0.0997,0 0.0997,0 0.0997,0 0.0997,0 0.0998,0 0.0997,0 0.0997,0 0.0997,0 0.0997,0 0.0997,0 0.0998,0 0.0997,0 0.0997,0 0.0997,0 0.0997,0 0.0997,0 0.0997,0 0.0998,0 0.0997,0 0.0997,0 0.0997,0 0.0997,0 0.0997,0 0.0998,0 0.0997,0 0.0997,0 0.0997,0 0.0997,0 0.0997,0 0.0997,0 0.0998,0 0.0997,0 0.0997,0 0.0997,0 0.0997,0 0.0997,0 0.0997,0 0.0998,0 0.0997,0 0.0997,0 0.0997,0 0.0997,0 0.0997,0 0.0998,0 0.0997,0 0.0997,0 0.0997,0 0.0997,0 0.0997,0 0.0997,0 0.0998,0 0.0997,0 0.0997,0 0.0997,0 0.0997,0 0.0997,0 0.0998,0 0.0997,0 0.0997,0 0.0997,0 0.0997,0 0.0997,0 0.0997,0 0.0998,0 0.0997,0 0.0997,0 0.0997,0 0.0997,0 0.0997,0 0.0998,0 0.0997,0 0.0997,0 0.0997,0 0.0997,0 0.0997,0 0.0997,0 0.0998,0 0.0997,0 0.0997,0 0.0997,0 0.0997,0 0.0997,0 0.0998,0 0.0997,0 0.0997,0 0.0997,0 0.0997,0 0.0997,0 0.0997,0 0.0998,0 0.0997,0 0.0997,0 0.0997,0 0.0997,0 0.0997,0 0.0997,0 0.0998,0 0.0997,0 0.0997,0 0.0997,0 0.0997,0 0.0997,0 0.0998,0 0.0997,0 0.0997,0 0.0997,0 0.0997,0 0.0997,0 0.0997,0 0.0998,0 0.0997,0 0.0997,0 0.0997,0 0.0997,0 0.0997,0 0.0998,0 0.0997,0 0.0997,0 0.0997,0 0.0997,0 0.0997,0 0.0997,0 0.0998,0 0.0997,0 0.0997,0 0.1001,0 0.099,0 0.1,0 0.1,0 0.099,0 0.1,0 0.1,0 0.1,0 0.099,0 0.1,0 0.1,0 0.099,0 0.1,0 0.1,0 0.1,0 0.099,0 0.1,0 0.1,0 0.099,0 0.1,0 0.1,0 0.1,0 0.099,0 0.1,0 0.1,0 0.099,0 0.1,0 0.1,0 0.1,0 0.099,0 0.1,0 0.1,0 0.099,0 0.1,0 0.1,0 0.1,0 0.099,0 0.1,0 0.1,0 0.099,0 0.1,0 0.1,0 0.1,0 0.099,0 0.1,0 0.1,0 0.1,0 0.099,0 0.1,0 0.1,0 0.099,0 0.1,0 0.1,0 0.1,0 0.099,0 0.1,0 0.1,0 0.099,0 0.1,0 0.1,0 0.1,0 0.099,0 0.1,0 0.1,0 0.099,0 0.1,0 0.1,0 0.1,0 0.099,0 0.1,0 0.1,0 0.099,0 0.1,0 0.1,0 0.1,0 0.099,0 0.1,0 0.1,0 0.099,0 0.1,0 0.1,0 0.1,0 0.099,0 0.1,0 0.1,0 0.099,0 0.1,0 0.1,0 0.1,0 0.099,0 0.1,0 0.1,0 0.099,0 0.1,0 0.1,0 0.1,0 0.099,0 0.1,0 0.1,0 0.099,0 0.1,0 0.1,0 0.1,0 0.099,0 0.1,0 0.1,0 0.099,0 0.1,0 0.1,0 0.1,0 0.099,0 0.1,0 0.1,0 0.099,0 0.1,0 0.1,0 0.1,0 0.099,0 0.1,0 0.1,0 0.099,0 0.1,0 0.1,0 0.1,0 0.099,0 0.1,0 0.1,0 0.099,0 0.1,0 0.1,0 0.1,0 0.099,0 0.1,0 0.1,0 0.099,0 0.1,0 0.1,0 0.1,0 0.099,0 0.1,0 0.1,0 0.099,0 0.1,0 0.1,0 0.1,0 0.099,0 0.1,0 0.1,0 0.099,0 0.1,0 0.1,0 0.1,0 0.099,0 0.1,0 0.1,0 0.099,0 0.1,0 0.1,0 0.1,0 0.099,0 0.1,0 0.1,0 0.099,0 0.1,0 0.1,0 0.1,0 0.099,0 0.1,0 0.1,0 0.099,0 0.1,0 0.1,0 0.1,0 0.099,0 0.1,0 0.1,0 0.099,0 0.1,0 0.1,0 0.1,0 0.099,0 0.1,0 0.1,0 0.099,0 0.1,0 0.1,0 0.1,0 0.099,0 0.1,0 0.1,0 0.099,0 0.1,0 0.1,0 0.1,0 0.099,0 0.1,0 0.1,0 0.1,0 0.099,0 0.1,0 0.1,0 0.099,0 0.1,0 0.1,0 0.1,0 0.099,0 0.1,0 0.1,0 0.099,0 0.1,0 0.1,0 0.1,0 0,0 0.037,0 0.037,0 0.038,0 0.037,0 0.037,0 0.038,0 0.037,0 0.038,0 0.037,0 0.037,0 0.038,0 0.037,0 0.038,0 0.037,0 0.037,0 0.038,0 0.037,0 0.038,0 0.037,0 0.037,0 0.038,0 0.037,0 0.038,0 0.037,0 0.037,0 0.038,0 0.037,0 0.038,0 0.037,0 0.037,0 0.038,0 0.037,0 0.037,0 0.038,0 0.037,0 0.038,0 0.037,0 0.037,0 0.038,0 0.037,0 0.038,0 0.037,0 0.037,0 0.038,0 0.037,0 0.038,0 0.037,0 0.037,0 0.038,0 0.037,0 0.038,0 0.037,0 0.037,0 0.038,0 0.037,0 0.038,0 0.037,0 0.037,0 0.038,0 0.037,0 0.038,0 0.037,0 0.037,0 0.038,0 0.037,0 0.037,0 0.038,0 0.037,0 0.038,0 0.037,0 0.037,0 0.038,0 0.037,0 0.038,0 0.037,0 0.037,0 0.038,0 0.037,0 0.038,0 0.037,0 0.037,0 0.038,0 0.037,0 0.038,0 0.037,0 0.037,0 0.038,0 0.037,0 0.038,0 0.037,0 0.037,0 0.038,0 0.037,0 0.037,0 0.038,0 0.037,0 0.038,0 0.037,0 0.037,0 0.038,0 0.037,0 0.038,0 0.037,0 0.037,0 0.038,0 0.037,0 0.038,0 0.037,0 0.037,0 0.038,0 0.037,0 0.038,0 0.037,0 0.037,0 0.038,0 0.037,0 0.038,0 0.037,0 0.037,0 0.038,0 0.037,0 0.037,0 0.038,0 0.037,0 0.038,0 0.037,0 0.037,0 0.038,0 0.037,0 0.038,0 0.037,0 0.037,0 0.038,0 0.037,0 0.038,0 0.037,0 0.037,0 0.038,0 0.037,0 0.038,0 0.037,0 0.037,0 0.038,0 0.037,0 0.038,0 0.037,0 0.037,0 0.038,0 0.037,0 0.038,0 0.037,0 0.037,0 0.038,0 0.037,0 0.037,0 0.038,0 0.037,0 0.038,0 0.037,0 0.037,0 0.038,0 0.037,0 0.038,0 0.037,0 0.037,0 0.038,0 0.037,0 0.038,0 0.037,0 0.037,0 0.038,0 0.037,0 0.038,0 0.037,0 0.037,0 0.038,0 0.037,0 0.038,0 0.037,0 0.037,0 0.038,0 0.037,0 0.037,0 0.038,0 0.037,0 0.038,0 0.037,0 0.037,0 0.038,0 0.037,0 0.038,0 0.037,0 0.037,0 0.038,0 0.037,0 0.038,0 0.037,0 0.037,0 0.038,0 0.037,0 0.038,0 0.037,0 0.037,0 0.038,0 0.037,0 0.038,0 0.037,0 0.037,0 0.038,0 0.037,0 0.037,0 0.038,0 0.037,0 0.038,0 0.037,0 0.037,0 0.038,0 0.037,0 0.038,0 0.037,0 0.037,0 0.038,0 0.037,0 0.038,0 0.037,0 0.037,0 0.038,0 0.037,0 0.038,0 0.037,0 0.037,0 0.038,0 0.037,0 0.038,0 0.037,0 0.037,0 0.038,0 0.037,0 0.037,0 0.038,0 0.037,0 0.038,0 0.037,0 0.037,0 0.038,0 0.037,0 0.038,0 0.037,0 0.037,0 0.038,0 0.037,0 0.038,0 0.037,0 0.037,0 0.038,0 0.037,0 0.038,0 0.037,0 0.037,0 0.038,0 0.037,0 0.038,0 0.037,0 0.037,0 0.038,0 0.037,0 0.038,0 0.037,0 0.037,0 0.038,0 0.037,0 0.037,0 0.038,0 0.037,0 0.038,0 0.037,0 0.037,0 0.038,0 0.037,0 0.038,0 0.037,0 0.037,0 0.038,0 0.037,0 0.038,0 0.037,0 0.037,0 0.038,0 0.037,0 0.038,0 0.037,0 0.037,0 0.038,0 0.037,0 0.038,0 0.037,0 0.037,0 0.038,0 0.037,0 0.037,0 0.038,0 0.037,0 0.038,0 0.037,0 0.037,0 0.038,0 0.037,0 0.038,0 0.037,0 0.037,0 0.038,0 0.037,0 0.038,0 0.037,0 0.037,0 0.038,0 0.037,0 0.038,0 0.037,0 0.037,0 0.038,0 0.037,0 0.038,0 0.037,0 0.037,0 0.038,0 0.037,0 0.037,0 0.038,0 0.037,0 0.038,0 0.037,0 0.037,0 0.038,0 0.037,0 0.038,0 0.037,0 0.037,0 0.038,0 0.037,0 0.038,0 0.037,0 0.037,0 0.038,0 0.037,0 0.038,0 0.037,0 0.037,0 0.038,0 0.037,0 0.038,0 0.037,0 0.037,0 0.038,0 0.037,0 0.038,0 0.037,0 0.037,0 0.038,0 0.037,0 0.037,0 0.038,0 0.037,0 0.038,0 0.037,0 0.037,0 0.038,0 0.037,0 0.038,0 0.037,0 0.037,0 0.038,0 0.037,0 0.038,0 0.037,0 0.037,0 0.038,0 0.037,0 0.038,0 0.037,0 0.037,0 0.038,0 0.037,0 0.038,0 0.037,0 0.037,0 0.038,0 0.037,0 0.037,0 0.038,0 0.037,0 0.038,0 0.037,0 0.037,0 0.038,0 0.037,0 0.038,0 0.037,0 0.037,0 0.038,0 0.037,0 0.038,0 0.037,0 0.037,0 0.038,0 0.037,0 0.038,0 0.037,0 0.037,0 0.038,0 0.037,0 0.038,0 0.037,0 0.037,0 0.038,0 0.037,0 0.037,0 0.038,0 0.037,0 0.038,0 0.037,0 0.037,0 0.038,0 0.037,0 0.038,0 0.037,0 0.037,0 0.038,0 0.037,0 0.038,0 0.037,0 0.037,0 0.038,0 0.037,0 0.038,0 0.037,0 0.037,0 0.038,0 0.037,0 0.038,0 0.037,0 0.037,0 0.038,0 0.037,0 0.037,0 0.038,0 0.037,0 0.038,0 0.037,0 0.037,0 0.038,0 0.037,0 0.038,0 0.037,0 0.037,0 0.038,0 0.037,0 0.038,0 0.037,0 0.037,0 0.038,0 0.037,0 0.038,0 0.037,0 0.037,0 0.038,0 0.037,0 0.038,0 0.037,0 0.037,0 0.038,0 0.037,0 0.038,0 0.037,0 0.037,0 0.038,0 0.037,0 0.037,0 0.038,0 0.037,0 0.038,0 0.037,0 0.037,0 0.038,0 0.037,0 0.038,0 0.037,0 0.037,0 0.038,0 0.037,0 0.038,0 0.037,0 0.037,0 0.038,0 0.037,0 0.038,0 0.037,0 0.037,0 0.038,0 0.037,0 0.038,0 0.037,0 0.037,0 0.038,0 0.037,0 0.037,0 0.038,0 0.037,0 0.038,0 0.037,0 0.037,0 0.038,0 0.037,0 0.038,0 0.037,0 0.037,0 0.038,0 0.037,0 0.038,0 0.037,0 0.037,0 0.038,0 0.037,0 0.038,0 0.037,0 0.037,0 0.038,0 0.037,0 0.038,0 0.037,0 0.037,0 0.038,0 0.037,0 0.037,0 0.038,0 0.037,0 0.038,0 0.037,0 0.037,0 0.038,0 0.037,0 0.038,0 0.037,0 0.037,0 0.038,0 0.037,0 0.038,0 0.037,0 0.037,0 0.038,0 0.037,0 0.038,0 0.037,0 0.037,0 0.038,0 0.037,0 0.038,0 0.037,0 0.037,0 0.038,0 0.037,0 0.038,0 0.037,0 0.037,0 0.038,0 0.037,0 0.037,0 0.038,0 0.037,0 0.038,0 0.037,0 0.037,0 0.038,0 0.037,0 0.038,0 0.037,0 0.037,0 0.038,0 0.037,0 0.038,0 0.037,0 0.037,0 0.038,0 0.037,0 0.038,0 0.037,0 0.037,0 0.038,0 0.037,0 0.038,0 0.037,0 0.037,0 0.038,0 0.037,0 0.037,0 0.038,0 0.037,0 0.038,0 0.037,0 0.037,0 0.038,0 0.037,0 0.038,0 0.037,0 0.037,0 0.038,0 0.037,0 0.038,0 0.037,0 0.037,0 0.038,0 0.037,0 0.038,0 0.037,0 0.037,0 0.038,0 0.037,0 0.038,0 0.037,0 0.037,0 0.038,0 0.037,0 0.037,0 0.038,0 0.037,0 0.038,0 0.037,0 0.037,0 0.038,0 0.037,0 0.038,0 0.037,0 0.037,0 0.038,0 0.037,0 0.038,0 0.037,0 0.037,0 0.038,0 0.037,0 0.038,0 0.037,0 0.037,0 0.038,0 0.037,0 0.038,0 0.037,0 0.037,0 0.038,0 0.037,0 0.038,0 0.037,0 0.037,0 0.038,0 0.037,0 0.037,0 0.038,0 0.037,0 0.038,0 0.037,0 0.037,0 0.038,0 0.037,0 0.038,0 0.037,0 0.037,0 0.038,0 0.037,0 0.038,0 0.037,0 0.037,0 0.038,0 0.037,0 0.038,0 0.037,0 0.037,0 0.038,0 0.037,0 0.038,0 0.037,0 0.037,0 0.038,0 0.037,0 0.037,0 0.038,0 0.037,0 0.038,0 0.037,0 0.037,0 0.038,0 0.037,0 0.038,0 0.037,0 0.037,0 0.038,0 0.037,0 0.038,0 0.037,0 0.037,0 0.038,0 0.037,0 0.038,0 0.037,0 0.037,0 0.038,0 0.037,0 0.038,0 0.037,0 0.037,0 0.038,0 0.037,0 0.037,0 0.038,0 0.037,0 0.038,0 0.037,0 0.037,0 0.038,0 0.037,0 0.038,0 0.037,0 0.037,0 0.038,0 0.037,0 0.038,0 0.037,0 0.037,0 0.038,0 0.037,0 0.038,0 0.037,0 0.037,0 0.038,0 0.037,0 0.038,0 0.037,0 0.037,0 0.038,0 0.037,0 0.037,0 0.038,0 0.037,0 0.038,0 0.037,0 0.037,0 0.038,0 0.037,0 0.038,0 0.037,0 0.037,0 0.038,0 0.037,0 0.038,0 0.037,0 0.037,0 0.038,0 0.037,0 0.038,0 0.037,0 0.037,0 0.038,0 0.037,0 0.038,0 0.037,0 0.037,0 0.038,0 0.037,0 0.038,0 0.037,0 0.037,0 0.038,0 0.037,0 0.037,0 0.038,0 0.037,0 0.038,0 0.037,0 0.037,0 0.038,0 0.037,0 0.038,0 0.037,0 0.037,0 0.038,0 0.037,0 0.038,0 0.037,0 0.037,0 0.038,0 0.037,0 0.038,0 0.037,0 0.037,0 0.038,0 0.037,0 0.038,0 0.037,0 0.037,0 0.038,0 0.037,0 0.037,0 0.038,0 0.037,0 0.038,0 0.037,0 0.037,0 0.038,0 0.037,0 0.038,0 0.037,0 0.037,0 0.038,0 0.037,0 0.038,0 0.037,0 0.037,0 0.038,0 0.037,0 0.038,0 0.037,0 0.037,0 0.038,0 0.037,0 0.038,0 0.037,0 0.037,0 0.038,0 0.037,0 0.037,0 0.038,0 0.037,0 0.038,0 0.037,0 0.037,0 0.038,0 0.037,0 0.038,0 0.037,0 0.037,0 0.038,0 0.037,0 0.038,0 0.037,0 0.037,0 0.038,0 0.037,0 0.038,0 0.037,0 0.037,0 0.038,0 0.037,0 0.038,0 0.037,0 0.037,0 0.038,0 0.037,0 0.038,0 0.037,0 0.037,0 0.038,0 0.037,0 0.037,0 0.038,0 0.037,0 0.038,0 0.037,0 0.037,0 0.038,0 0.037,0 0.038,0 0.037,0 0.037,0 0.038,0 0.037,0 0.038,0 0.037,0 0.037,0 0.038,0 0.037,0 0.038,0 0.037,0 0.037,0 0.038,0 0.037,0 0.038,0 0.037,0 0.037,0 0.038,0 0.037,0 0.037,0 0.038,0 0.037,0 0.038,0 0.037,0 0.037,0 0.038,0 0.037,0 0.038,0 0.037,0 0.037,0 0.038,0 0.037,0 0.038,0 0.037,0 0.037,0 0.038,0 0.037,0 0.038,0 0.037,0 0.037,0 0.038,0 0.037,0 0.038,0 0.037,0 0.037,0 0.038,0 0.037,0 0.037,0 0.038,0 0.037,0 0.038,0 0.037,0 0.037,0 0.038,0 0.037,0 0.038,0 0.037,0 0.037,0 0.038,0 0.037,0 0.038,0 0.037,0 0.037,0 0.038,0 0.037,0 0.038,0 0.037,0 0.037,0 0.038,0 0.037,0 0.038,0 0.037,0 0.037,0 0.038,0 0.037,0 0.037,0 0.038,0 0.037,0 0.038,0 0.037,0 0.037,0 0.038,0 0.037,0 0.038,0 0.037,0 0.037,0 0.038,0 0.037,0 0.038,0 0.037,0 0.037,0 0.038,0 0.037,0 0.038,0 0.037,0 0.037,0 0.038,0 0.037,0 0.038,0 0.037,0 0.037,0 0.038,0 0.037,0 0.038,0 0.037,0 0.037,0 0.038,0 0.037,0 0.037,0 0.038,0 0.037,0 0.038,0 0.037,0 0.037,0 0.038,0 0.037,0 0.038,0 0.037,0 0.037,0 0.038,0 0.037,0 0.038,0 0.037,0 0.037,0 0.038,0 0.037,0 0.038,0 0.037,0 0.037,0 0,0 0.113,0 0.112,0 0.112,0 0.112,0 0.112,0 0.112,0 0.113,0 0.112,0 0.112,0 0.112,0 0.112,0 0.112,0 0.113,0 0.112,0 0.112,0 0.112,0 0.112,0 0.113,0 0.112,0 0.112,0 0.112,0 0.112,0 0.112,0 0.113,0 0.112,0 0.112,0 0.112,0 0.112,0 0.113,0 0.112,0 0.112,0 0.112,0 0.112,0 0.112,0 0.113,0 0.112,0 0.112,0 0.112,0 0.112,0 0.113,0 0.112,0 0.112,0 0.112,0 0.112,0 0.112,0 0.113,0 0.112,0 0.112,0 0.112,0 0.112,0 0.113,0 0.112,0 0.112,0 0.112,0 0.112,0 0.112,0 0.113,0 0.112,0 0.112,0 0.112,0 0.112,0 0.112,0 0.113,0 0.112,0 0.112,0 0.112,0 0.112,0 0.113,0 0.112,0 0.112,0 0.112,0 0.112,0 0.112,0 0.113,0 0.112,0 0.112,0 0.112,0 0.112,0 0.113,0 0.112,0 0.112,0 0.112,0 0.112,0 0.112,0 0.113,0 0.112,0 0.112,0 0.112,0 0.112,0 0.113,0 0.112,0 0.112,0 0.112,0 0.112,0 0.112,0 0.113,0 0.112,0 0.112,0 0.112,0 0.112,0 0.112,0 0.113,0 0.112,0 0.112,0 0.112,0 0.112,0 0.113,0 0.112,0 0.112,0 0.112,0 0.112,0 0.112,0 0.113,0 0.112,0 0.112,0 0.112,0 0.112,0 0.113,0 0.112,0 0.112,0 0.112,0 0.112,0 0.112,0 0.113,0 0.112,0 0.112,0 0.112,0 0.112,0 0.113,0 0.112,0 0.112,0 0.112,0 0.112,0 0.112,0 0.113,0 0.112,0 0.112,0 0.112,0 0.112,0 0.112,0 0.113,0 0.112,0 0.112,0 0.112,0 0.112,0 0.113,0 0.112,0 0.112,0 0.112,0 0.112,0 0.112,0 0.113,0 0.112,0 0.112,0 0.112,0 0.112,0 0.113,0 0.112,0 0.112,0 0.112,0 0.112,0 0.112,0 0.113,0 0.112,0 0.112,0 0.112,0 0.112,0 0.113,0 0.112,0 0.112,0 0.112,0 0.112,0 0.112,0 0.113,0 0.112,0 0.112,0 0.112,0 0.112,0 0.112,0 0.113,0 0.112,0 0.112,0 0.112,0 0.112,0 0.113,0 0.112,0 0.112,0 0.112,0 0.112,0 0.112,0 0.113,0 0.112,0 0.112,0 0.112,0 0.112,0 0.113,0 0.112,0 0.112,0 0.112,0 0.112,0 0.112,0 0.113,0 0.112,0 0.112,0 0.112,0 0.112,0 0.113,0 0.112,0 0.112,0 0.112,0 0.112,0 0.112,0 0.113,0 0.112,0 0.112,0 0.112,0 0.112,0 0.113,0 0.112,0 0.112,0 0.112,0 0.112,0 0.112,0 0.113,0 0.112,0 0.112,0 0.112,0 0.112,0 0.112,0 0.113,0 0.112,0 0.112,0 0.112,0 0.112,0 0.113,0 0.112,0 0.112,0 0.112,0 0.112,0 0.112,0 0.113,0 0.112,0 0.112,0 0.112,0 0.112,0 0.113,0 0.112,0 0.112,0 0.112,0 0.112,0 0.112,0 0.113,0 0.112,0 0.112,0 0.112,0 0.112,0 0.113,0 0.112,0 0.112,0 0.112,0 0.112,0 0.112,0 0.113,0 0.112,0 0.112,0 0.112,0 0.112,0 0.112,0 0.113,0 0.112,0 0.112,0 0.112,0 0.112,0 0.113,0 0.112,0 0.112,0 0.112,0 0.112,0 0.112,0 0.113,0 0.112,0 0.112,0 0.112,0 0.112,0 0.113,0 0.112,0 0.112,0 0.112,0 0.112,0 0.112,0 0.113,0 0.112,0 0.112,0 0.112,0 0.112,0 0.113,0 0.112,0 0.112,0 0.112,0 0.112,0 0.112,0 0.113,0 0.112,0 0.112,0 0.112,0 0.112,0 0.112,0 0.113,0 0.112,0 0.112,0 0.112,0 0.112,0 0.113,0 0.112,0 0.112,0 0.112,0 0.112,0 0.112,0 0.113,0 0.112,0 0.112,0 0.112,0 0.112,0 0.113,0 0.112,0 0.112,0 0.112,0 0.112,0 0.112,0 0.113,0 0.112,0 0.112,0 0.112,0 0.112,0 0.113,0 0.112,0 0.112,0 0.112,0 0.112,0 0.112,0 0.113,0 0.112,0 0.112,0 0.112,0 0.112,0 0.112,0 0.113,0 0.112,0 0.112,0 0.112,0 0.112,0 0.113,0 0.112,0 0.112,0 0.112,0 0.112,0 0.112,0 0.113,0 0.112,0 0.112,0 0.112,0 0.112,0 0.113,0 0.112,0 0.112,0 0.112,0 0.112,0 0.112,0 0.113,0 0.112,0 0.112,0 0.112,0 0.112,0 0.113,0 0.112,0 0.112,0 0.112,0 0.112,0 0.112,0 0.113,0 0.112,0 0.112,0 0.112,0 0.112,0 0.113,0 0.112,0 0.112,0 0.112,0 0.112,0 0.112,0 0.113,0 0.112,0 0.112,0 0.112,0 0.112,0 0.112,0 0.113,0 0.112,0 0.112,0 0.112,0 0.112,0 0.113,0 0.112,0 0.112,0 0.112,0 0.112,0 0.112,0 0.113,0 0.112,0 0.112,0 0.112,0 0.112,0 0.113,0 0.112,0 0.112,0 0.112,0 0.112,0 0.112,0 0.113,0 0.112,0 0.112,0 0.112,0 0.112,0 0.113,0 0.112,0 0.112,0 0.112,0 0.112,0 0.112,0 0.113,0 0.112,0 0.112,0 0.112,0 0.112,0 0.112,0 0.113,0 0.112,0 0.112,0 0.112,0 0.112,0 0.113,0 0.112,0 0.112,0 0.112,0 0.112,0 0.112,0 0.113,0 0.112,0 0.112,0 0.112,0 0.112,0 0.113,0 0.112,0 0.112,0 0.112,0 0.112,0 0.112,0 0.113,0 0.112,0 0.112,0 0.112,0 0.112,0 0.113,0 0.112,0 0.112,0 0.112,0 0.112,0 0.112,0 0.113,0 0.112,0 0.112,0 0.112,0 0.112,0 0.112,0 0.113,0 0.112,0 0.112,0 0.112,0 0.112,0 0.113,0 0.112,0 0.112,0 0.112,0 0.112,0 0.112,0 0.113,0 0.112,0 0.112,0 0.112,0 0.112,0 0.113,0 0.112,0 0.112,0 0.112,0 0.112,0 0.112,0 0.113,0 0.112,0 0.112,0 0.112,0 0.112,0 0.113,0 0.112,0 0.112,0 0.112,0 0.112,0 0.112,0 0.113,0 0.112,0 0.112,0 0.112,0 0.112,0 0.112,0 0.113,0 0.112,0 0.112,0 0.112,0 0.112,0 0.113,0 0.112,0 0.112,0 0.112,0 0.112,0 0.112,0 0.113,0 0.112,0 0.112,0 0.112,0 0.112,0 0.113,0 0.112,0 0.112,0 0.112,0 0.112,0 0.112,0 0.113,0 0.112,0 0.112,0 0.112,0 0.112,0 0.113,0 0.112,0 0.112,0 0.112,0 0.112,0 0.112,0 0.113,0 0.112,0 0.112,0 0.112,0 0.112,0 0.113,0 0.112,0 0.112,0 0.112,0 0.112,0 0.112,0 0.113,0 0.112,0 0.112,0 0.112,0 0.112,0 0.112,0 0.113,0 0.112,0 0.112,0 0.112,0 0.112,0 0.113,0 0.112,0 0.112,0 0.112,0 0.112,0 0.112,0 0.113,0 0.112,0 0.112,0 0.112,0 0.112,0 0.113,0 0.112,0 0.112,0 0.112,0 0.112,0 0.112,0 0.113,0 0.112,0 0.112,0 0.112,0 0.112,0 0.113,0 0.112,0 0.112,0 0.112,0 0.112,0 0.112,0 0.113,0 0.112,0 0.112,0 0.112,0 0.112,0 0.112,0 0.113,0 0.112,0 0.112,0 0.112,0 0.112,0 0.113,0 0.112,0 0.112,0 0.112,0 0.112,0 0.112,0 0.113,0 0.112,0 0.112,0 0.112,0 0.112,0 0.113,0 0.112,0 0.112,0 0.112,0 0.112,0 0.112,0 0.113,0 0.112,0 0.112,0 0.112,0 0.112,0 0.113,0 0.112,0 0.112,0 0.112,0 0.112,0 0.112,0 0.113,0 0.112,0 0.112,0 0.112,0 0.112,0 0.112,0 0.113,0 0.112,0 0.112,0 0.112,0 0.112,0 0.113,0 0.112,0 0.112,0 0.112,0 0.112,0 0.112,0 0.113,0 0.112,0 0.112,0 0.112,0 0.112,0 0.113,0 0.112,0 0.112,0 0.112,0 0.112,0 0.112,0 0.113,0 0.112,0 0.112,0 0.112,0 0.112,0 0.113,0 0.112,0 0.112,0 0.112,0 0.112,0 0.112,0 0.113,0 0.112,0 0.112,0 0.112,0 0.112,0 0.112,0 0.113,0 0.112,0 0.112,0 0.112,0 0.112,0 0.113,0 0.112,0 0.112,0 0.112,0 0.112,0 0.112,0 0.113,0 0.112,0 0.112,0 0.112,0 0.112,0 0.113,0 0.112,0 0.112,0 0.112,0 0.112,0 0.112,0 0.113,0 0.112,0 0.112,0 0.112,0 0.112,0 0.113,0 0.112,0 0.112,0 0.112,0 0.112,0 0.112,0 0.113,0 0.112,0 0.112,0 0.112,0 0.112,0 0.113,0 0.112,0 0.112,0 0.112,0 0.112,0 0.112,0 0.113,0 0.112,0 0.112,0 0.112,0 0.112,0 0.112,0 0.113,0 0.112,0 0.112,0 0.112,0 0.112,0 0.113,0 0.112,0 0.112,0 0.112,0 0.112,0 0.112,0 0.113,0 0.112,0 0.112,0 0.112,0 0.112,0 0.113,0 0.112,0 0.112,0 0.112,0 0.112,0 0.112,0 0.113,0 0.112,0 0.112,0 0.112,0 0.112,0 0.113,0 0.112,0 0.112,0 0.112,0 0.112,0 0.112,0 0.113,0 0.112,0 0.112,0 0.112,0 0.112,0 0.112,0 0.113,0 0.112,0 0.112,0 0.112,0 0.112,0 0.113,0 0.112,0 0.112,0 0.112,0 0.112,0 0.112,0 0.113,0 0.112,0 0.112,0 0.112,0 0.112,0 0.113,0 0.112,0 0.112,0 0.112,0 0.112,0 0.112,0 0.113,0 0.112,0 0.112,0 0.112,0 0.112,0 0.113,0 0.112,0 0.112,0 0.112,0 0.112,0 0.112,0 0.113,0 0.112,0 0.112,0 0.112,0 0.112,0 0.112,0 0.113,0 0.112,0 0.112,0 0.112,0 0.112,0 0.113,0 0.112,0 0.112,0 0.112,0 0.112,0 0.112,0 0.113,0 0.112,0 0.112,0 0.112,0 0.112,0 0.113,0 0.112,0 0.112,0 0.112,0 0.112,0 0.112,0 0.113,0 0.112,0 0.112,0 0.112,0 0.112,0 0.113,0 0.112,0 0.112,0 0.112,0 0.112,0 0.112,0 0.113,0 0.112,0 0.112,0 0.112,0 0.112,0 0.112,0 0.113,0 0.112,0 0.112,0 0.112,0 0.112,0 0.113,0 0.112,0 0.112,0 0.112,0 0.112,0 0.112,0 0.113,0 0.112,0 0.112,0 0.112,0 0.112,0 0.113,0 0.112,0 0.112,0 0.112,0 0.112,0 0.112,0 0.113,0 0.112,0 0.112,0 0.112,0 0.112,0 0.113,0 0.112,0 0.112,0 0.112,0 0.112,0 0.112,0 0.113,0 0.112,0 0.112,0 0.112,0 0.112,0 0.113,0 0.112,0 0.112,0 0.112,0 0.112,0 0.112,0 0.113,0 0.112,0 0.112,0 0.112,0 0.112,0 0.112,0 0.113,0 0.112,0 0.112,0 0.112,0 0.112,0 0.113,0 0.112,0 0.112,0 0.112,0 0.112,0 0.112,0 0.113,0 0.112,0 0.112,0 0.112,0 0.112,0 0.113,0 0.112,0 0.112,0 0.112,0 0.112,0 0.112,0 0.113,0 0.112,0 0.112,0 0.112,0 0.112,0 0.113,0 0.112,0 0.112,0 0.112,0 0.112,0 0.112,0 0.113,0 0.112,0 0.112,0 0.112,0 0.112,0 0.112,0 0.113,0 0.112,0 0.112,0 0.112,0 0.112,0 0.113,0 0.112,0 0.112,0 0.112,0 0.112,0 0.112,0 0.113,0 0.112,0 0.112,0 0.112,0 0.112,0 0.113,0 0.112,0 0.112,0 0.112,0 0.112,0 0.112,0 0.113,0 0.112,0 0.112,0 0.112,0 0.112,0 0.113,0 0.112,0 0.112,0 0.112,0 0.112,0 0.112,0 0.113,0 0.112,0 0.112,0 0.112,0 0.112,0 0.112,0 0.113,0 0.112,0 0.112,0 0.112,0 0.112,0 0.113,0 0.112,0 0.112,0 0.112,0 0.112,0 0.112,0 0.113,0 0.112,0 0.112,0 0.112,0 0.112,0 0.113,0 0.112,0 0.112,0 0.112,0 0.112,0 0.112,0 0.113,0 0.112,0 0,-23.78246 0,0 -0.112,0 -0.113,0 -0.112,0 -0.112,0 -0.112,0 -0.112,0 -0.112,0 -0.113,0 -0.112,0 -0.112,0 -0.112,0 -0.112,0 -0.113,0 -0.112,0 -0.112,0 -0.112,0 -0.112,0 -0.112,0 -0.113,0 -0.112,0 -0.112,0 -0.112,0 -0.112,0 -0.113,0 -0.112,0 -0.112,0 -0.112,0 -0.112,0 -0.112,0 -0.113,0 -0.112,0 -0.112,0 -0.112,0 -0.112,0 -0.112,0 -0.113,0 -0.112,0 -0.112,0 -0.112,0 -0.112,0 -0.113,0 -0.112,0 -0.112,0 -0.112,0 -0.112,0 -0.112,0 -0.113,0 -0.112,0 -0.112,0 -0.112,0 -0.112,0 -0.113,0 -0.112,0 -0.112,0 -0.112,0 -0.112,0 -0.112,0 -0.113,0 -0.112,0 -0.112,0 -0.112,0 -0.112,0 -0.113,0 -0.112,0 -0.112,0 -0.112,0 -0.112,0 -0.112,0 -0.113,0 -0.112,0 -0.112,0 -0.112,0 -0.112,0 -0.112,0 -0.113,0 -0.112,0 -0.112,0 -0.112,0 -0.112,0 -0.113,0 -0.112,0 -0.112,0 -0.112,0 -0.112,0 -0.112,0 -0.113,0 -0.112,0 -0.112,0 -0.112,0 -0.112,0 -0.113,0 -0.112,0 -0.112,0 -0.112,0 -0.112,0 -0.112,0 -0.113,0 -0.112,0 -0.112,0 -0.112,0 -0.112,0 -0.113,0 -0.112,0 -0.112,0 -0.112,0 -0.112,0 -0.112,0 -0.113,0 -0.112,0 -0.112,0 -0.112,0 -0.112,0 -0.112,0 -0.113,0 -0.112,0 -0.112,0 -0.112,0 -0.112,0 -0.113,0 -0.112,0 -0.112,0 -0.112,0 -0.112,0 -0.112,0 -0.113,0 -0.112,0 -0.112,0 -0.112,0 -0.112,0 -0.113,0 -0.112,0 -0.112,0 -0.112,0 -0.112,0 -0.112,0 -0.113,0 -0.112,0 -0.112,0 -0.112,0 -0.112,0 -0.113,0 -0.112,0 -0.112,0 -0.112,0 -0.112,0 -0.112,0 -0.113,0 -0.112,0 -0.112,0 -0.112,0 -0.112,0 -0.113,0 -0.112,0 -0.112,0 -0.112,0 -0.112,0 -0.112,0 -0.113,0 -0.112,0 -0.112,0 -0.112,0 -0.112,0 -0.112,0 -0.113,0 -0.112,0 -0.112,0 -0.112,0 -0.112,0 -0.113,0 -0.112,0 -0.112,0 -0.112,0 -0.112,0 -0.112,0 -0.113,0 -0.112,0 -0.112,0 -0.112,0 -0.112,0 -0.113,0 -0.112,0 -0.112,0 -0.112,0 -0.112,0 -0.112,0 -0.113,0 -0.112,0 -0.112,0 -0.112,0 -0.112,0 -0.113,0 -0.112,0 -0.112,0 -0.112,0 -0.112,0 -0.112,0 -0.113,0 -0.112,0 -0.112,0 -0.112,0 -0.112,0 -0.112,0 -0.113,0 -0.112,0 -0.112,0 -0.112,0 -0.112,0 -0.113,0 -0.112,0 -0.112,0 -0.112,0 -0.112,0 -0.112,0 -0.113,0 -0.112,0 -0.112,0 -0.112,0 -0.112,0 -0.113,0 -0.112,0 -0.112,0 -0.112,0 -0.112,0 -0.112,0 -0.113,0 -0.112,0 -0.112,0 -0.112,0 -0.112,0 -0.113,0 -0.112,0 -0.112,0 -0.112,0 -0.112,0 -0.112,0 -0.113,0 -0.112,0 -0.112,0 -0.112,0 -0.112,0 -0.112,0 -0.113,0 -0.112,0 -0.112,0 -0.112,0 -0.112,0 -0.113,0 -0.112,0 -0.112,0 -0.112,0 -0.112,0 -0.112,0 -0.113,0 -0.112,0 -0.112,0 -0.112,0 -0.112,0 -0.113,0 -0.112,0 -0.112,0 -0.112,0 -0.112,0 -0.112,0 -0.113,0 -0.112,0 -0.112,0 -0.112,0 -0.112,0 -0.113,0 -0.112,0 -0.112,0 -0.112,0 -0.112,0 -0.112,0 -0.113,0 -0.112,0 -0.112,0 -0.112,0 -0.112,0 -0.112,0 -0.113,0 -0.112,0 -0.112,0 -0.112,0 -0.112,0 -0.113,0 -0.112,0 -0.112,0 -0.112,0 -0.112,0 -0.112,0 -0.113,0 -0.112,0 -0.112,0 -0.112,0 -0.112,0 -0.113,0 -0.112,0 -0.112,0 -0.112,0 -0.112,0 -0.112,0 -0.113,0 -0.112,0 -0.112,0 -0.112,0 -0.112,0 -0.113,0 -0.112,0 -0.112,0 -0.112,0 -0.112,0 -0.112,0 -0.113,0 -0.112,0 -0.112,0 -0.112,0 -0.112,0 -0.113,0 -0.112,0 -0.112,0 -0.112,0 -0.112,0 -0.112,0 -0.113,0 -0.112,0 -0.112,0 -0.112,0 -0.112,0 -0.112,0 -0.113,0 -0.112,0 -0.112,0 -0.112,0 -0.112,0 -0.113,0 -0.112,0 -0.112,0 -0.112,0 -0.112,0 -0.112,0 -0.113,0 -0.112,0 -0.112,0 -0.112,0 -0.112,0 -0.113,0 -0.112,0 -0.112,0 -0.112,0 -0.112,0 -0.112,0 -0.113,0 -0.112,0 -0.112,0 -0.112,0 -0.112,0 -0.113,0 -0.112,0 -0.112,0 -0.112,0 -0.112,0 -0.112,0 -0.113,0 -0.112,0 -0.112,0 -0.112,0 -0.112,0 -0.112,0 -0.113,0 -0.112,0 -0.112,0 -0.112,0 -0.112,0 -0.113,0 -0.112,0 -0.112,0 -0.112,0 -0.112,0 -0.112,0 -0.113,0 -0.112,0 -0.112,0 -0.112,0 -0.112,0 -0.113,0 -0.112,0 -0.112,0 -0.112,0 -0.112,0 -0.112,0 -0.113,0 -0.112,0 -0.112,0 -0.112,0 -0.112,0 -0.113,0 -0.112,0 -0.112,0 -0.112,0 -0.112,0 -0.112,0 -0.113,0 -0.112,0 -0.112,0 -0.112,0 -0.112,0 -0.112,0 -0.113,0 -0.112,0 -0.112,0 -0.112,0 -0.112,0 -0.113,0 -0.112,0 -0.112,0 -0.112,0 -0.112,0 -0.112,0 -0.113,0 -0.112,0 -0.112,0 -0.112,0 -0.112,0 -0.113,0 -0.112,0 -0.112,0 -0.112,0 -0.112,0 -0.112,0 -0.113,0 -0.112,0 -0.112,0 -0.112,0 -0.112,0 -0.113,0 -0.112,0 -0.112,0 -0.112,0 -0.112,0 -0.112,0 -0.113,0 -0.112,0 -0.112,0 -0.112,0 -0.112,0 -0.112,0 -0.113,0 -0.112,0 -0.112,0 -0.112,0 -0.112,0 -0.113,0 -0.112,0 -0.112,0 -0.112,0 -0.112,0 -0.112,0 -0.113,0 -0.112,0 -0.112,0 -0.112,0 -0.112,0 -0.113,0 -0.112,0 -0.112,0 -0.112,0 -0.112,0 -0.112,0 -0.113,0 -0.112,0 -0.112,0 -0.112,0 -0.112,0 -0.113,0 -0.112,0 -0.112,0 -0.112,0 -0.112,0 -0.112,0 -0.113,0 -0.112,0 -0.112,0 -0.112,0 -0.112,0 -0.113,0 -0.112,0 -0.112,0 -0.112,0 -0.112,0 -0.112,0 -0.113,0 -0.112,0 -0.112,0 -0.112,0 -0.112,0 -0.112,0 -0.113,0 -0.112,0 -0.112,0 -0.112,0 -0.112,0 -0.113,0 -0.112,0 -0.112,0 -0.112,0 -0.112,0 -0.112,0 -0.113,0 -0.112,0 -0.112,0 -0.112,0 -0.112,0 -0.113,0 -0.112,0 -0.112,0 -0.112,0 -0.112,0 -0.112,0 -0.113,0 -0.112,0 -0.112,0 -0.112,0 -0.112,0 -0.113,0 -0.112,0 -0.112,0 -0.112,0 -0.112,0 -0.112,0 -0.113,0 -0.112,0 -0.112,0 -0.112,0 -0.112,0 -0.112,0 -0.113,0 -0.112,0 -0.112,0 -0.112,0 -0.112,0 -0.113,0 -0.112,0 -0.112,0 -0.112,0 -0.112,0 -0.112,0 -0.113,0 -0.112,0 -0.112,0 -0.112,0 -0.112,0 -0.113,0 -0.112,0 -0.112,0 -0.112,0 -0.112,0 -0.112,0 -0.113,0 -0.112,0 -0.112,0 -0.112,0 -0.112,0 -0.113,0 -0.112,0 -0.112,0 -0.112,0 -0.112,0 -0.112,0 -0.113,0 -0.112,0 -0.112,0 -0.112,0 -0.112,0 -0.112,0 -0.113,0 -0.112,0 -0.112,0 -0.112,0 -0.112,0 -0.113,0 -0.112,0 -0.112,0 -0.112,0 -0.112,0 -0.112,0 -0.113,0 -0.112,0 -0.112,0 -0.112,0 -0.112,0 -0.113,0 -0.112,0 -0.112,0 -0.112,0 -0.112,0 -0.112,0 -0.113,0 -0.112,0 -0.112,0 -0.112,0 -0.112,0 -0.113,0 -0.112,0 -0.112,0 -0.112,0 -0.112,0 -0.112,0 -0.113,0 -0.112,0 -0.112,0 -0.112,0 -0.112,0 -0.112,0 -0.113,0 -0.112,0 -0.112,0 -0.112,0 -0.112,0 -0.113,0 -0.112,0 -0.112,0 -0.112,0 -0.112,0 -0.112,0 -0.113,0 -0.112,0 -0.112,0 -0.112,0 -0.112,0 -0.113,0 -0.112,0 -0.112,0 -0.112,0 -0.112,0 -0.112,0 -0.113,0 -0.112,0 -0.112,0 -0.112,0 -0.112,0 -0.113,0 -0.112,0 -0.112,0 -0.112,0 -0.112,0 -0.112,0 -0.113,0 -0.112,0 -0.112,0 -0.112,0 -0.112,0 -0.113,0 -0.112,0 -0.112,0 -0.112,0 -0.112,0 -0.112,0 -0.113,0 -0.112,0 -0.112,0 -0.112,0 -0.112,0 -0.112,0 -0.113,0 -0.112,0 -0.112,0 -0.112,0 -0.112,0 -0.113,0 -0.112,0 -0.112,0 -0.112,0 -0.112,0 -0.112,0 -0.113,0 -0.112,0 -0.112,0 -0.112,0 -0.112,0 -0.113,0 -0.112,0 -0.112,0 -0.112,0 -0.112,0 -0.112,0 -0.113,0 -0.112,0 -0.112,0 -0.112,0 -0.112,0 -0.113,0 -0.112,0 -0.112,0 -0.112,0 -0.112,0 -0.112,0 -0.113,0 -0.112,0 -0.112,0 -0.112,0 -0.112,0 -0.112,0 -0.113,0 -0.112,0 -0.112,0 -0.112,0 -0.112,0 -0.113,0 -0.112,0 -0.112,0 -0.112,0 -0.112,0 -0.112,0 -0.113,0 -0.112,0 -0.112,0 -0.112,0 -0.112,0 -0.113,0 -0.112,0 -0.112,0 -0.112,0 -0.112,0 -0.112,0 -0.113,0 -0.112,0 -0.112,0 -0.112,0 -0.112,0 -0.113,0 -0.112,0 -0.112,0 -0.112,0 -0.112,0 -0.112,0 -0.113,0 -0.112,0 -0.112,0 -0.112,0 -0.112,0 -0.112,0 -0.113,0 -0.112,0 -0.112,0 -0.112,0 -0.112,0 -0.113,0 -0.112,0 -0.112,0 -0.112,0 -0.112,0 -0.112,0 -0.113,0 -0.112,0 -0.112,0 -0.112,0 -0.112,0 -0.113,0 -0.112,0 -0.112,0 -0.112,0 -0.112,0 -0.112,0 -0.113,0 -0.112,0 -0.112,0 -0.112,0 -0.112,0 -0.113,0 -0.112,0 -0.112,0 -0.112,0 -0.112,0 -0.112,0 -0.113,0 -0.112,0 -0.112,0 -0.112,0 -0.112,0 -0.112,0 -0.113,0 -0.112,0 -0.112,0 -0.112,0 -0.112,0 -0.113,0 -0.112,0 -0.112,0 -0.112,0 -0.112,0 -0.112,0 -0.113,0 -0.112,0 -0.112,0 -0.112,0 -0.112,0 -0.113,0 -0.112,0 -0.112,0 -0.112,0 -0.112,0 -0.112,0 -0.113,0 -0.112,0 -0.112,0 -0.112,0 -0.112,0 -0.113,0 -0.112,0 -0.112,0 -0.112,0 -0.112,0 -0.112,0 -0.113,0 -0.112,0 -0.112,0 -0.112,0 -0.112,0 -0.113,0 -0.112,0 -0.112,0 -0.112,0 -0.112,0 -0.112,0 -0.113,0 -0.112,0 -0.112,0 -0.112,0 -0.112,0 -0.112,0 -0.113,0 -0.112,0 -0.112,0 -0.112,0 -0.112,0 -0.113,0 -0.112,0 -0.112,0 -0.112,0 -0.112,0 -0.112,0 -0.113,0 -0.112,0 -0.112,0 -0.112,0 -0.112,0 -0.113,0 -0.112,0 -0.112,0 -0.112,0 -0.112,0 -0.112,0 -0.113,0 -0.112,0 -0.112,0 -0.112,0 -0.112,0 -0.113,0 -0.112,0 -0.112,0 -0.112,0 -0.112,0 -0.112,0 -0.113,0 -0.112,0 -0.112,0 -0.112,0 -0.112,0 -0.112,0 -0.113,0 -0.112,0 -0.112,0 -0.112,0 -0.112,0 -0.113,0 -0.112,0 -0.112,0 -0.112,0 -0.112,0 -0.112,0 -0.113,0 -0.112,0 -0.112,0 -0.112,0 -0.112,0 -0.113,0 -0.112,0 -0.112,0 -0.112,0 -0.112,0 -0.112,0 -0.113,0 -0.112,0 -0.112,0 -0.112,0 -0.112,0 -0.113,0 -0.112,0 -0.112,0 -0.112,0 -0.112,0 -0.112,0 -0.113,0 -0.112,0 -0.112,0 -0.112,0 -0.112,0 -0.112,0 -0.113,0 -0.112,0 -0.112,0 -0.112,0 -0.112,0 -0.113,0 -0.112,0 -0.112,0 -0.112,0 -0.112,0 -0.112,0 -0.113,0 -0.112,0 -0.112,0 -0.112,0 -0.112,0 -0.113,0 -0.112,0 -0.112,0 -0.112,0 -0.112,0 -0.112,0 -0.113,0 -0.112,0 -0.112,0 -0.112,0 -0.112,0 -0.113,0 -0.112,0 -0.112,0 -0.112,0 -0.112,0 -0.112,0 -0.113,0 -0.112,0 -0.112,0 -0.112,0 -0.112,0 -0.112,0 -0.113,0 -0.112,0 -0.112,0 -0.112,0 -0.112,0 -0.113,0 -0.112,0 -0.112,0 -0.112,0 -0.112,0 -0.112,0 -0.113,0 -0.112,0 -0.112,0 -0.112,0 -0.112,0 -0.113,0 -0.112,0 -0.112,0 -0.112,0 -0.112,0 -0.112,0 -0.113,0 -0.112,0 -0.112,0 -0.112,0 -0.112,0 -0.113,0 -0.112,0 -0.112,0 -0.112,0 -0.112,0 -0.112,0 -0.113,0 -0.112,0 -0.112,0 -0.112,0 -0.112,0 -0.113,0 -0.112,0 -0.112,0 -0.112,0 -0.112,0 -0.112,0 -0.113,0 -0.112,0 -0.112,0 -0.112,0 -0.112,0 -0.112,0 -0.113,0 0,-118.9125 -0.037,0 -0.037,0 -0.038,0 -0.037,0 -0.038,0 -0.037,0 -0.037,0 -0.038,0 -0.037,0 -0.038,0 -0.037,0 -0.037,0 -0.038,0 -0.037,0 -0.038,0 -0.037,0 -0.037,0 -0.038,0 -0.037,0 -0.038,0 -0.037,0 -0.037,0 -0.038,0 -0.037,0 -0.037,0 -0.038,0 -0.037,0 -0.038,0 -0.037,0 -0.037,0 -0.038,0 -0.037,0 -0.038,0 -0.037,0 -0.037,0 -0.038,0 -0.037,0 -0.038,0 -0.037,0 -0.037,0 -0.038,0 -0.037,0 -0.038,0 -0.037,0 -0.037,0 -0.038,0 -0.037,0 -0.038,0 -0.037,0 -0.037,0 -0.038,0 -0.037,0 -0.038,0 -0.037,0 -0.037,0 -0.038,0 -0.037,0 -0.037,0 -0.038,0 -0.037,0 -0.038,0 -0.037,0 -0.037,0 -0.038,0 -0.037,0 -0.038,0 -0.037,0 -0.037,0 -0.038,0 -0.037,0 -0.038,0 -0.037,0 -0.037,0 -0.038,0 -0.037,0 -0.038,0 -0.037,0 -0.037,0 -0.038,0 -0.037,0 -0.038,0 -0.037,0 -0.037,0 -0.038,0 -0.037,0 -0.037,0 -0.038,0 -0.037,0 -0.038,0 -0.037,0 -0.037,0 -0.038,0 -0.037,0 -0.038,0 -0.037,0 -0.037,0 -0.038,0 -0.037,0 -0.038,0 -0.037,0 -0.037,0 -0.038,0 -0.037,0 -0.038,0 -0.037,0 -0.037,0 -0.038,0 -0.037,0 -0.038,0 -0.037,0 -0.037,0 -0.038,0 -0.037,0 -0.037,0 -0.038,0 -0.037,0 -0.038,0 -0.037,0 -0.037,0 -0.038,0 -0.037,0 -0.038,0 -0.037,0 -0.037,0 -0.038,0 -0.037,0 -0.038,0 -0.037,0 -0.037,0 -0.038,0 -0.037,0 -0.038,0 -0.037,0 -0.037,0 -0.038,0 -0.037,0 -0.038,0 -0.037,0 -0.037,0 -0.038,0 -0.037,0 -0.037,0 -0.038,0 -0.037,0 -0.038,0 -0.037,0 -0.037,0 -0.038,0 -0.037,0 -0.038,0 -0.037,0 -0.037,0 -0.038,0 -0.037,0 -0.038,0 -0.037,0 -0.037,0 -0.038,0 -0.037,0 -0.038,0 -0.037,0 -0.037,0 -0.038,0 -0.037,0 -0.038,0 -0.037,0 -0.037,0 -0.038,0 -0.037,0 -0.038,0 -0.037,0 -0.037,0 -0.038,0 -0.037,0 -0.037,0 -0.038,0 -0.037,0 -0.038,0 -0.037,0 -0.037,0 -0.038,0 -0.037,0 -0.038,0 -0.037,0 -0.037,0 -0.038,0 -0.037,0 -0.038,0 -0.037,0 -0.037,0 -0.038,0 -0.037,0 -0.038,0 -0.037,0 -0.037,0 -0.038,0 -0.037,0 -0.038,0 -0.037,0 -0.037,0 -0.038,0 -0.037,0 -0.037,0 -0.038,0 -0.037,0 -0.038,0 -0.037,0 -0.037,0 -0.038,0 -0.037,0 -0.038,0 -0.037,0 -0.037,0 -0.038,0 -0.037,0 -0.038,0 -0.037,0 -0.037,0 -0.038,0 -0.037,0 -0.038,0 -0.037,0 -0.037,0 -0.038,0 -0.037,0 -0.038,0 -0.037,0 -0.037,0 -0.038,0 -0.037,0 -0.037,0 -0.038,0 -0.037,0 -0.038,0 -0.037,0 -0.037,0 -0.038,0 -0.037,0 -0.038,0 -0.037,0 -0.037,0 -0.038,0 -0.037,0 -0.038,0 -0.037,0 -0.037,0 -0.038,0 -0.037,0 -0.038,0 -0.037,0 -0.037,0 -0.038,0 -0.037,0 -0.038,0 -0.037,0 -0.037,0 -0.038,0 -0.037,0 -0.038,0 -0.037,0 -0.037,0 -0.038,0 -0.037,0 -0.037,0 -0.038,0 -0.037,0 -0.038,0 -0.037,0 -0.037,0 -0.038,0 -0.037,0 -0.038,0 -0.037,0 -0.037,0 -0.038,0 -0.037,0 -0.038,0 -0.037,0 -0.037,0 -0.038,0 -0.037,0 -0.038,0 -0.037,0 -0.037,0 -0.038,0 -0.037,0 -0.038,0 -0.037,0 -0.037,0 -0.038,0 -0.037,0 -0.037,0 -0.038,0 -0.037,0 -0.038,0 -0.037,0 -0.037,0 -0.038,0 -0.037,0 -0.038,0 -0.037,0 -0.037,0 -0.038,0 -0.037,0 -0.038,0 -0.037,0 -0.037,0 -0.038,0 -0.037,0 -0.038,0 -0.037,0 -0.037,0 -0.038,0 -0.037,0 -0.038,0 -0.037,0 -0.037,0 -0.038,0 -0.037,0 -0.037,0 -0.038,0 -0.037,0 -0.038,0 -0.037,0 -0.037,0 -0.038,0 -0.037,0 -0.038,0 -0.037,0 -0.037,0 -0.038,0 -0.037,0 -0.038,0 -0.037,0 -0.037,0 -0.038,0 -0.037,0 -0.038,0 -0.037,0 -0.037,0 -0.038,0 -0.037,0 -0.038,0 -0.037,0 -0.037,0 -0.038,0 -0.037,0 -0.037,0 -0.038,0 -0.037,0 -0.038,0 -0.037,0 -0.037,0 -0.038,0 -0.037,0 -0.038,0 -0.037,0 -0.037,0 -0.038,0 -0.037,0 -0.038,0 -0.037,0 -0.037,0 -0.038,0 -0.037,0 -0.038,0 -0.037,0 -0.037,0 -0.038,0 -0.037,0 -0.038,0 -0.037,0 -0.037,0 -0.038,0 -0.037,0 -0.038,0 -0.037,0 -0.037,0 -0.038,0 -0.037,0 -0.037,0 -0.038,0 -0.037,0 -0.038,0 -0.037,0 -0.037,0 -0.038,0 -0.037,0 -0.038,0 -0.037,0 -0.037,0 -0.038,0 -0.037,0 -0.038,0 -0.037,0 -0.037,0 -0.038,0 -0.037,0 -0.038,0 -0.037,0 -0.037,0 -0.038,0 -0.037,0 -0.038,0 -0.037,0 -0.037,0 -0.038,0 -0.037,0 -0.037,0 -0.038,0 -0.037,0 -0.038,0 -0.037,0 -0.037,0 -0.038,0 -0.037,0 -0.038,0 -0.037,0 -0.037,0 -0.038,0 -0.037,0 -0.038,0 -0.037,0 -0.037,0 -0.038,0 -0.037,0 -0.038,0 -0.037,0 -0.037,0 -0.038,0 -0.037,0 -0.038,0 -0.037,0 -0.037,0 -0.038,0 -0.037,0 -0.037,0 -0.038,0 -0.037,0 -0.038,0 -0.037,0 -0.037,0 -0.038,0 -0.037,0 -0.038,0 -0.037,0 -0.037,0 -0.038,0 -0.037,0 -0.038,0 -0.037,0 -0.037,0 -0.038,0 -0.037,0 -0.038,0 -0.037,0 -0.037,0 -0.038,0 -0.037,0 -0.038,0 -0.037,0 -0.037,0 -0.038,0 -0.037,0 -0.038,0 -0.037,0 -0.037,0 -0.038,0 -0.037,0 -0.037,0 -0.038,0 -0.037,0 -0.038,0 -0.037,0 -0.037,0 -0.038,0 -0.037,0 -0.038,0 -0.037,0 -0.037,0 -0.038,0 -0.037,0 -0.038,0 -0.037,0 -0.037,0 -0.038,0 -0.037,0 -0.038,0 -0.037,0 -0.037,0 -0.038,0 -0.037,0 -0.038,0 -0.037,0 -0.037,0 -0.038,0 -0.037,0 -0.037,0 -0.038,0 -0.037,0 -0.038,0 -0.037,0 -0.037,0 -0.038,0 -0.037,0 -0.038,0 -0.037,0 -0.037,0 -0.038,0 -0.037,0 -0.038,0 -0.037,0 -0.037,0 -0.038,0 -0.037,0 -0.038,0 -0.037,0 -0.037,0 -0.038,0 -0.037,0 -0.038,0 -0.037,0 -0.037,0 -0.038,0 -0.037,0 -0.037,0 -0.038,0 -0.037,0 -0.038,0 -0.037,0 -0.037,0 -0.038,0 -0.037,0 -0.038,0 -0.037,0 -0.037,0 -0.038,0 -0.037,0 -0.038,0 -0.037,0 -0.037,0 -0.038,0 -0.037,0 -0.038,0 -0.037,0 -0.037,0 -0.038,0 -0.037,0 -0.038,0 -0.037,0 -0.037,0 -0.038,0 -0.037,0 -0.038,0 -0.037,0 -0.037,0 -0.038,0 -0.037,0 -0.037,0 -0.038,0 -0.037,0 -0.038,0 -0.037,0 -0.037,0 -0.038,0 -0.037,0 -0.038,0 -0.037,0 -0.037,0 -0.038,0 -0.037,0 -0.038,0 -0.037,0 -0.037,0 -0.038,0 -0.037,0 -0.038,0 -0.037,0 -0.037,0 -0.038,0 -0.037,0 -0.038,0 -0.037,0 -0.037,0 -0.038,0 -0.037,0 -0.037,0 -0.038,0 -0.037,0 -0.038,0 -0.037,0 -0.037,0 -0.038,0 -0.037,0 -0.038,0 -0.037,0 -0.037,0 -0.038,0 -0.037,0 -0.038,0 -0.037,0 -0.037,0 -0.038,0 -0.037,0 -0.038,0 -0.037,0 -0.037,0 -0.038,0 -0.037,0 -0.038,0 -0.037,0 -0.037,0 -0.038,0 -0.037,0 -0.037,0 -0.038,0 -0.037,0 -0.038,0 -0.037,0 -0.037,0 -0.038,0 -0.037,0 -0.038,0 -0.037,0 -0.037,0 -0.038,0 -0.037,0 -0.038,0 -0.037,0 -0.037,0 -0.038,0 -0.037,0 -0.038,0 -0.037,0 -0.037,0 -0.038,0 -0.037,0 -0.038,0 -0.037,0 -0.037,0 -0.038,0 -0.037,0 -0.037,0 -0.038,0 -0.037,0 -0.038,0 -0.037,0 -0.037,0 -0.038,0 -0.037,0 -0.038,0 -0.037,0 -0.037,0 -0.038,0 -0.037,0 -0.038,0 -0.037,0 -0.037,0 -0.038,0 -0.037,0 -0.038,0 -0.037,0 -0.037,0 -0.038,0 -0.037,0 -0.038,0 -0.037,0 -0.037,0 -0.038,0 -0.037,0 -0.038,0 -0.037,0 -0.037,0 -0.038,0 -0.037,0 -0.037,0 -0.038,0 -0.037,0 -0.038,0 -0.037,0 -0.037,0 -0.038,0 -0.037,0 -0.038,0 -0.037,0 -0.037,0 -0.038,0 -0.037,0 -0.038,0 -0.037,0 -0.037,0 -0.038,0 -0.037,0 -0.038,0 -0.037,0 -0.037,0 -0.038,0 -0.037,0 -0.038,0 -0.037,0 -0.037,0 -0.038,0 -0.037,0 -0.037,0 -0.038,0 -0.037,0 -0.038,0 -0.037,0 -0.037,0 -0.038,0 -0.037,0 -0.038,0 -0.037,0 -0.037,0 -0.038,0 -0.037,0 -0.038,0 -0.037,0 -0.037,0 -0.038,0 -0.037,0 -0.038,0 -0.037,0 -0.037,0 -0.038,0 -0.037,0 -0.038,0 -0.037,0 -0.037,0 -0.038,0 -0.037,0 -0.037,0 -0.038,0 -0.037,0 -0.038,0 -0.037,0 -0.037,0 -0.038,0 -0.037,0 -0.038,0 -0.037,0 -0.037,0 -0.038,0 -0.037,0 -0.038,0 -0.037,0 -0.037,0 -0.038,0 -0.037,0 -0.038,0 -0.037,0 -0.037,0 -0.038,0 -0.037,0 -0.038,0 -0.037,0 -0.037,0 -0.038,0 -0.037,0 -0.038,0 -0.037,0 -0.037,0 -0.038,0 -0.037,0 -0.037,0 -0.038,0 -0.037,0 -0.038,0 -0.037,0 -0.037,0 -0.038,0 -0.037,0 -0.038,0 -0.037,0 -0.037,0 -0.038,0 -0.037,0 -0.038,0 -0.037,0 -0.037,0 -0.038,0 -0.037,0 -0.038,0 -0.037,0 -0.037,0 -0.038,0 -0.037,0 -0.038,0 -0.037,0 -0.037,0 -0.038,0 -0.037,0 -0.037,0 -0.038,0 -0.037,0 -0.038,0 -0.037,0 -0.037,0 -0.038,0 -0.037,0 -0.038,0 -0.037,0 -0.037,0 -0.038,0 -0.037,0 -0.038,0 -0.037,0 -0.037,0 -0.038,0 -0.037,0 -0.038,0 -0.037,0 -0.037,0 -0.038,0 -0.037,0 -0.038,0 -0.037,0 -0.037,0 -0.038,0 -0.037,0 -0.037,0 -0.038,0 -0.037,0 -0.038,0 -0.037,0 -0.037,0 -0.038,0 -0.037,0 -0.038,0 -0.037,0 -0.037,0 -0.038,0 -0.037,0 -0.038,0 -0.037,0 -0.037,0 -0.038,0 -0.037,0 -0.038,0 -0.037,0 -0.037,0 -0.038,0 -0.037,0 -0.038,0 -0.037,0 -0.037,0 -0.038,0 -0.037,0 -0.037,0 -0.038,0 -0.037,0 -0.038,0 -0.037,0 -0.037,0 -0.038,0 -0.037,0 -0.038,0 -0.037,0 -0.037,0 -0.038,0 -0.037,0 -0.038,0 -0.037,0 -0.037,0 -0.038,0 -0.037,0 -0.038,0 -0.037,0 -0.037,0 -0.038,0 -0.037,0 -0.038,0 -0.037,0 -0.037,0 -0.038,0 -0.037,0 -0.038,0 -0.037,0 -0.037,0 -0.038,0 -0.037,0 -0.037,0 -0.038,0 -0.037,0 -0.038,0 -0.037,0 -0.037,0 -0.038,0 -0.037,0 -0.038,0 -0.037,0 -0.037,0 -0.038,0 -0.037,0 -0.038,0 -0.037,0 -0.037,0 -0.038,0 -0.037,0 -0.038,0 -0.037,0 -0.037,0 -0.038,0 -0.037,0 -0.038,0 -0.037,0 -0.037,0 -0.038,0 -0.037,0 -0.037,0 -0.038,0 -0.037,0 -0.038,0 -0.037,0 -0.037,0 -0.038,0 -0.037,0 -0.038,0 -0.037,0 -0.037,0 -0.038,0 -0.037,0 -0.038,0 -0.037,0 -0.037,0 -0.038,0 -0.037,0 -0.038,0 -0.037,0 -0.037,0 -0.038,0 -0.037,0 -0.038,0 -0.037,0 -0.037,0 -0.038,0 -0.037,0 -0.037,0 -0.038,0 -0.037,0 -0.038,0 -0.037,0 -0.037,0 -0.038,0 -0.037,0 -0.038,0 -0.037,0 -0.037,0 -0.038,0 -0.037,0 -0.038,0 -0.037,0 -0.037,0 -0.038,0 -0.037,0 -0.038,0 -0.037,0 -0.037,0 -0.038,0 -0.037,0 -0.038,0 -0.037,0 -0.037,0 -0.038,0 -0.037,0 -0.038,0 -0.037,0 -0.037,0 -0.038,0 -0.037,0 -0.037,0 -0.038,0 -0.037,0 -0.038,0 -0.037,0 -0.037,0 -0.038,0 -0.037,0 -0.038,0 -0.037,0 -0.037,0 -0.038,0 -0.037,0 -0.038,0 -0.037,0 -0.037,0 -0.038,0 -0.037,0 -0.038,0 -0.037,0 -0.037,0 -0.038,0 -0.037,0 -0.038,0 -0.037,0 -0.037,0 -0.038,0 -0.037,0 -0.037,0 0,118.9125 -0.1,0 -0.1,0 -0.1,0 -0.099,0 -0.1,0 -0.1,0 -0.099,0 -0.1,0 -0.1,0 -0.1,0 -0.099,0 -0.1,0 -0.1,0 -0.099,0 -0.1,0 -0.1,0 -0.1,0 -0.099,0 -0.1,0 -0.1,0 -0.1,0 -0.099,0 -0.1,0 -0.1,0 -0.099,0 -0.1,0 -0.1,0 -0.1,0 -0.099,0 -0.1,0 -0.1,0 -0.099,0 -0.1,0 -0.1,0 -0.1,0 -0.099,0 -0.1,0 -0.1,0 -0.099,0 -0.1,0 -0.1,0 -0.1,0 -0.099,0 -0.1,0 -0.1,0 -0.099,0 -0.1,0 -0.1,0 -0.1,0 -0.099,0 -0.1,0 -0.1,0 -0.099,0 -0.1,0 -0.1,0 -0.1,0 -0.099,0 -0.1,0 -0.1,0 -0.099,0 -0.1,0 -0.1,0 -0.1,0 -0.099,0 -0.1,0 -0.1,0 -0.099,0 -0.1,0 -0.1,0 -0.1,0 -0.099,0 -0.1,0 -0.1,0 -0.099,0 -0.1,0 -0.1,0 -0.1,0 -0.099,0 -0.1,0 -0.1,0 -0.099,0 -0.1,0 -0.1,0 -0.1,0 -0.099,0 -0.1,0 -0.1,0 -0.099,0 -0.1,0 -0.1,0 -0.1,0 -0.099,0 -0.1,0 -0.1,0 -0.099,0 -0.1,0 -0.1,0 -0.1,0 -0.099,0 -0.1,0 -0.1,0 -0.099,0 -0.1,0 -0.1,0 -0.1,0 -0.099,0 -0.1,0 -0.1,0 -0.099,0 -0.1,0 -0.1,0 -0.1,0 -0.099,0 -0.1,0 -0.1,0 -0.099,0 -0.1,0 -0.1,0 -0.1,0 -0.099,0 -0.1,0 -0.1,0 -0.099,0 -0.1,0 -0.1,0 -0.1,0 -0.099,0 -0.1,0 -0.1,0 -0.099,0 -0.1,0 -0.1,0 -0.1,0 -0.099,0 -0.1,0 -0.1,0 -0.099,0 -0.1,0 -0.1,0 -0.1,0 -0.099,0 -0.1,0 -0.1,0 -0.099,0 -0.1,0 -0.1,0 -0.1,0 -0.099,0 -0.1,0 -0.1,0 -0.099,0 -0.1,0 -0.1,0 -0.1,0 -0.099,0 -0.1,0 -0.1,0 -0.099,0 -0.1,0 -0.1,0 -0.1,0 -0.099,0 -0.1,0 -0.1,0 -0.099,0 -0.1,0 -0.1,0 -0.1,0 -0.099,0 -0.1,0 -0.1,0 -0.1,0 -0.099,0 -0.1,0 -0.1,0 -0.099,0 -0.1,0 -0.1,0 -0.1,0 -0.099,0 -0.1,0 -0.1,0 -0.099,0 -0.1,0 -0.1,0 -0.1,0 -0.099,0 -0.1,0 -0.1,0 -0.099,0 -0.1,0 -0.1,0 -0.1,0 -0.099,0 -0.1,0 -0.1,0 -0.099,0 -0.1,0 -0.1,0 -0.1,0 -0.099,0 -0.1,0 -0.1,0 -0.099,0 -0.1,0 -0.1,0 -0.1,0 -0.099,0 -0.1,0 -0.1,0 -0.099,0 -0.1001,0 -0.0997,0 -0.0997,0 -0.0998,0 -0.0997,0 -0.0997,0 -0.0997,0 -0.0997,0 -0.0997,0 -0.0997,0 -0.0998,0 -0.0997,0 -0.0997,0 -0.0997,0 -0.0997,0 -0.0997,0 -0.0998,0 -0.0997,0 -0.0997,0 -0.0997,0 -0.0997,0 -0.0997,0 -0.0997,0 -0.0998,0 -0.0997,0 -0.0997,0 -0.0997,0 -0.0997,0 -0.0997,0 -0.0998,0 -0.0997,0 -0.0997,0 -0.0997,0 -0.0997,0 -0.0997,0 -0.0997,0 -0.0998,0 -0.0997,0 -0.0997,0 -0.0997,0 -0.0997,0 -0.0997,0 -0.0997,0 -0.0998,0 -0.0997,0 -0.0997,0 -0.0997,0 -0.0997,0 -0.0997,0 -0.0998,0 -0.0997,0 -0.0997,0 -0.0997,0 -0.0997,0 -0.0997,0 -0.0997,0 -0.0998,0 -0.0997,0 -0.0997,0 -0.0997,0 -0.0997,0 -0.0997,0 -0.0998,0 -0.0997,0 -0.0997,0 -0.0997,0 -0.0997,0 -0.0997,0 -0.0997,0 -0.0998,0 -0.0997,0 -0.0997,0 -0.0997,0 -0.0997,0 -0.0997,0 -0.0998,0 -0.0997,0 -0.0997,0 -0.0997,0 -0.0997,0 -0.0997,0 -0.0997,0 -0.0998,0 -0.0997,0 -0.0997,0 -0.0997,0 -0.0997,0 -0.0997,0 -0.0998,0 -0.0997,0 -0.0997,0 -0.0997,0 -0.0997,0 -0.0997,0 -0.0997,0 -0.0998,0 -0.0997,0 -0.0997,0 -0.0997,0 -0.0997,0 -0.0997,0 -0.0997,0 -0.0998,0 -0.0997,0 -0.0997,0 -0.0997,0 -0.0997,0 -0.0997,0 -0.0998,0 -0.0997,0 -0.0997,0 -0.0997,0 -0.0997,0 -0.0997,0 -0.0997,0 -0.0998,0 -0.0997,0 -0.0997,0 -0.0997,0 -0.0997,0 -0.0997,0 -0.0998,0 -0.0997,0 -0.0997,0 -0.0997,0 -0.0997,0 -0.0997,0 -0.0997,0 -0.0998,0 -0.0997,0 -0.0997,0 -0.0997,0 -0.0997,0 -0.0997,0 -0.0998,0 -0.0997,0 -0.0997,0 -0.0997,0 -0.0997,0 -0.0997,0 -0.0997,0 -0.0998,0 -0.0997,0 -0.0997,0 -0.0997,0 -0.0997,0 -0.0997,0 -0.0997,0 -0.0998,0 -0.0997,0 -0.0997,0 -0.0997,0 -0.0997,0 -0.0997,0 -0.0998,0 -0.0997,0 -0.0997,0 -0.0997,0 -0.0997,0 -0.0997,0 -0.0997,0 -0.0998,0 -0.0997,0 -0.0997,0 -0.0997,0 -0.0997,0 -0.0997,0 -0.0998,0 -0.0997,0 -0.0997,0 -0.0997,0 -0.0997,0 -0.0997,0 -0.0997,0 -0.0998,0 -0.0997,0 -0.0997,0 -0.0997,0 -0.0997,0 -0.0997,0 -0.0998,0 -0.0997,0 -0.0997,0 -0.0997,0 -0.0997,0 -0.0997,0 -0.0997,0 -0.0998,0 -0.0997,0 -0.0997,0 -0.0997,0 -0.0997,0 -0.0997,0 -0.0998,0 -0.0997,0 -0.0997,0 -0.0997,0 -0.0997,0 -0.0997,0 -0.0997,0 -0.0998,0 -0.0997,0 -0.0997,0 -0.0997,0 -0.0997,0 -0.0997,0 -0.0997,0 -0.0998,0 -0.0997,0 -0.0997,0 -0.0997,0 -0.0997,0 -0.0997,0 -0.0998,0 -0.0997,0 -0.0997,0 -0.0997,0 -0.0997,0 -0.0997,0 -0.0997,0 -0.0998,0 -0.0997,0 -0.0997,0 -0.0997,0 -0.0997,0 -0.0997,0 -0.0998,0 -0.0997,0 -0.0997,0 -0.0997,0 -0.0997,0 -0.0997,0 -0.0997,0 -0.0998,0 -0.0997,0 -0.0997,0 -0.0997,0 -0.0997,0 -0.0997,0 -0.0998,0 -0.0997,0 -0.0997,0 -0.0997,0 -0.0997,0 -0.0997,0 -0.0997,0 -0.0998,0 -0.0997,0 -0.0997,0 -0.0997,0 -0.0997,0 -0.0997,0 -0.0997,0 -0.0998,0 -0.0997,0 -0.0997,0 -0.0997,0 -0.0997,0 -0.0997,0 -0.0998,0 -0.0997,0 -0.0997,0 -0.0997,0 -0.0997,0 -0.0997,0 -0.0997,0 -0.0998,0 -0.0997,0 -0.0997,0 -0.0997,0 -0.0997,0 -0.0997,0 -0.0998,0 -0.0997,0 -0.0997,0 -0.0997,0 -0.0997,0 -0.0997,0 -0.0997,0 -0.0998,0 -0.0997,0 -0.0997,0 -0.0997,0 -0.0997,0 -0.0997,0 -0.0998,0 -0.0997,0 -0.0997,0 -0.0997,0 -0.0997,0 -0.0997,0 -0.0997,0 -0.0998,0 -0.0997,0 -0.0997,0 -0.0997,0 -0.0997,0 -0.0997,0 -0.0998,0 -0.0997,0 -0.0997,0 -0.0997,0 -0.0997,0 -0.0997,0 -0.0997,0 -0.0998,0 -0.0997,0 -0.0997,0 -0.0997,0 -0.0997,0 -0.0997,0 -0.0997,0 -0.0998,0 -0.0997,0 -0.0997,0 -0.0997,0 -0.0997,0 -0.0997,0 -0.0998,0 -0.0997,0 -0.0997,0 -0.0997,0 -0.0997,0 -0.0997,0 -0.0997,0 -0.0998,0 -0.0997,0 -0.0997,0 -0.0997,0 -0.0997,0 -0.0997,0 -0.0998,0 -0.0997,0 -0.0997,0 -0.0997,0 -0.0997,0 -0.0997,0 -0.0997,0 -0.0998,0 -0.0997,0 -0.0997,0 -0.0997,0 -0.0997,0 -0.0997,0 -0.0998,0 -0.0997,0 -0.0997,0 -0.0997,0 -0.0997,0 -0.0997,0 -0.0997,0 -0.0998,0 -0.0997,0 -0.0997,0 -0.0997,0 -0.0997,0 -0.0997,0 -0.0997,0 -0.0998,0 -0.0997,0 -0.0997,0 -0.0997,0 -0.0997,0 -0.0997,0 -0.0998,0 -0.0997,0 -0.0997,0 -0.0997,0 -0.0997,0 -0.0997,0 -0.0997,0 -0.0998,0 -0.0997,0 -0.0997,0 -0.0997,0 -0.0997,0 -0.0997,0 -0.0998,0 -0.0997,0 -0.0997,0 -0.0997,0 -0.0997,0 -0.0997,0 -0.0997,0 -0.0998,0 -0.0997,0 -0.0997,0 -0.0997,0 -0.0997,0 -0.0997,0 -0.0998,0 -0.0997,0 -0.0997,0 -0.0997,0 -0.0997,0 -0.0997,0 -0.0997,0 -0.0998,0 -0.0997,0 -0.0997,0 -0.0997,0 -0.0997,0 -0.0997,0 -0.0997,0 -0.0998,0 -0.0997,0 -0.0997,0 -0.0997,0 -0.0997,0 -0.0997,0 -0.0998,0 -0.0997,0 -0.0997,0 -0.0997,0 -0.0997,0 -0.0997,0 -0.0997,0 -0.0998,0 -0.0997,0 -0.0997,0 -0.0997,0 -0.0997,0 -0.0997,0 -0.0998,0 -0.0997,0 -0.0997,0 -0.0997,0 -0.0997,0 -0.0997,0 -0.0997,0 -0.0998,0 -0.0997,0 -0.0997,0 -0.0997,0 -0.0997,0 -0.0997,0 -0.0998,0 -0.0997,0 -0.0997,0 -0.0997,0 -0.0997,0 -0.0997,0 -0.0997,0 -0.0998,0 -0.0997,0 -0.0997,0 -0.0997,0 -0.0997,0 -0.0997,0 -0.0998,0 -0.0997,0 -0.0997,0 -0.0997,0 -0.0997,0 -0.0997,0 -0.0997,0 -0.0998,0 -0.0997,0 -0.0997,0 -0.0997,0 -0.0997,0 -0.0997,0 -0.0997,0 -0.0998,0 -0.0997,0 -0.0997,0 -0.0997,0 -0.0997,0 -0.0997,0 -0.0998,0 -0.0997,0 -0.0997,0 -0.0997,0 -0.0997,0 -0.0997,0 -0.0997,0 -0.0998,0 -0.0997,0 -0.0997,0 -0.0997,0 -0.0997,0 -0.0997,0 -0.0998,0 -0.0997,0 -0.0997,0 -0.0997,0 -0.0997,0 -0.0997,0 -0.0997,0 -0.0998,0 -0.0997,0 -0.0997,0 -0.0997,0 -0.0997,0 -0.0997,0 -0.0998,0 -0.0997,0 -0.0997,0 -0.0997,0 -0.0997,0 -0.0997,0 -0.0997,0 -0.0998,0 -0.0997,0 -0.0997,0 -0.0997,0 -0.0997,0 -0.0997,0 -0.0997,0 -0.0998,0 -0.0997,0 -0.0997,0 -0.0997,0 -0.0997,0 -0.0997,0 -0.0998,0 -0.0997,0 -0.0997,0 -0.0997,0 -0.0997,0 -0.0997,0 -0.0997,0 -0.0998,0 -0.0997,0 -0.0997,0 -0.0997,0 -0.0997,0 -0.0997,0 -0.0998,0 -0.0997,0 -0.0997,0 -0.0997,0 -0.0997,0 -0.0997,0 -0.0997,0 -0.0998,0 -0.0997,0 -0.0997,0 -0.0997,0 -0.0997,0 -0.0997,0 -0.0998,0 -0.0997,0 -0.0997,0 -0.0997,0 -0.0997,0 -0.0997,0 -0.0997,0 -0.0998,0 -0.0997,0 -0.0997,0 -0.0997,0 -0.0997,0 -0.0997,0 -0.0998,0 -0.0997,0 -0.0997,0 -0.0997,0 -0.0997,0 -0.0997,0 -0.0997,0 -0.0998,0 -0.0997,0 -0.0997,0 -0.0997,0 -0.0997,0 -0.0997,0 -0.0997,0 -0.0998,0 -0.0997,0 -0.0997,0 -0.0997,0 -0.0997,0 -0.0997,0 -0.0998,0 -0.0997,0 -0.0997,0 -0.0997,0 -0.0997,0 -0.0997,0 -0.0997,0 -0.0998,0 -0.0997,0 -0.0997,0 -0.0997,0 -0.0997,0 -0.0997,0 -0.0998,0 -0.0997,0 -0.0997,0 -0.0997,0 -0.0997,0 -0.0997,0 -0.0997,0 -0.0998,0 -0.0997,0 -0.0997,0 -0.0997,0 -0.0997,0 -0.0997,0 -0.0998,0 -0.0997,0 -0.0997,0 -0.0997,0 -0.0997,0 -0.0997,0 -0.0997,0 -0.0998,0 -0.0997,0 -0.0997,0 -0.0997,0 -0.0997,0 -0.0997,0 -0.0997,0 -0.0998,0 -0.0997,0 -0.0997,0 -0.0997,0 -0.0997,0 -0.0997,0 -0.0998,0 -0.0997,0 -0.0997,0 -0.0997,0 -0.0997,0 -0.0997,0 -0.0997,0 -0.0998,0 -0.0997,0 -0.0997,0 -0.0997,0 -0.0997,0 -0.0997,0 -0.0998,0 -0.0997,0 -0.0997,0 -0.0997,0 -0.0997,0 -0.0997,0 -0.0997,0 -0.0998,0 -0.0997,0 -0.0997,0 -0.0997,0 -0.0997,0 -0.0997,0 -0.0998,0 -0.0997,0 -0.0997,0 -0.0997,0 -0.0997,0 -0.0997,0 -0.0997,0 -0.0998,0 -0.0997,0 -0.0997,0 -0.0997,0 -0.0997,0 -0.0997,0 -0.0997,0 -0.0998,0 -0.0997,0 -0.0997,0 -0.0997,0 -0.0997,0 -0.0997,0 -0.0998,0 -0.0997,0 -0.0997,0 -0.0997,0 -0.0997,0 -0.0997,0 -0.0997,0 -0.0998,0 -0.0997,0 -0.0997,0 -0.0997,0 -0.0997,0 -0.0997,0 -0.0998,0 -0.0997,0 -0.0997,0 -0.0997,0 -0.0997,0 -0.0997,0 -0.0997,0 -0.0998,0 -0.0997,0 -0.0997,0 -0.0997,0 -0.0997,0 -0.0997,0 -0.0998,0 -0.0997,0 -0.0997,0 -0.0997,0 -0.0997,0 -0.0997,0 -0.0997,0 -0.0998,0 -0.0997,0 -0.0997,0 -0.0997,0 -0.0997,0 -0.0997,0 -0.0998,0 -0.0997,0 -0.0997,0 -0.0997,0 -0.0997,0 -0.0997,0 -0.0997,0 -0.0998,0 -0.0997,0 -0.0997,0 -0.0997,0 -0.0997,0 -0.0997,0 -0.0997,0 -0.0998,0 -0.0997,0 -0.0997,0 -0.0997,0 -0.0997,0 -0.0997,0 -0.0998,0 -0.0997,0 -0.0997,0 -0.0997,0 -0.0997,0 -0.0997,0 -0.0997,0 -0.0998,0 -0.0997,0 -0.0997,0 -0.0997,0 -0.0997,0 -0.0997,0 -0.0998,0 -0.0997,0 -0.0997,0 -0.0997,0 -0.0997,0 -0.0997,0 -0.0997,0 -0.0998,0 -0.0997,0 -0.0997,0 -0.0997,0 -0.0997,0 -0.0997,0 -0.0998,0 -0.0997,0 -0.0997,0 -0.0997,0 -0.0997,0 -0.0997,0 -0.0997,0 -0.0998,0 -0.0997,0 -0.0997,0 -0.0997,0 -0.0997,0 -0.0997,0 -0.0997,0 -0.0998,0 -0.0997,0 -0.0997,0 -0.0997,0 -0.0997,0 -0.0997,0 -0.0998,0 -0.0997,0 -0.0997,0 -0.0997,0 -0.0997,0 -0.0997,0 -0.0997,0 -0.0998,0 -0.0997,0 -0.0997,0 -0.0997,0 -0.0997,0 -0.0997,0 -0.0998,0 -0.0997,0 -0.0997,0 -0.0997,0 z"
         id="mca05e97844"
         style="stroke:#000000;stroke-width:0.69999999;stroke-linecap:butt;stroke-linejoin:round" />
    </defs>
    <filter
       inkscape:collect="always"
       style="color-interpolation-filters:sRGB"
       id="filter5312"
       x="-0.017763984"
       width="1.035528"
       y="-0.036982719"
       height="1.0739654">
      <feGaussianBlur
         inkscape:collect="always"
         stdDeviation="2.1364584"
         id="feGaussianBlur5314" />
    </filter>
    <mask
       maskUnits="userSpaceOnUse"
       id="mask5444">
      <rect
         y="43.039284"
         x="190.67708"
         height="138.64584"
         width="288.64584"
         id="rect5446"
         style="opacity:1;fill:#ffffff;fill-opacity:1;fill-rule:nonzero;stroke:#000000;stroke-width:1.35415661;stroke-linecap:round;stroke-linejoin:miter;stroke-miterlimit:4;stroke-dasharray:none;stroke-dashoffset:0;stroke-opacity:1;filter:url(#filter5312)"
         mask="none" />
    </mask>
    <clipPath
       clipPathUnits="userSpaceOnUse"
       id="clipPath5448">
      <rect
         style="opacity:1;fill:none;fill-opacity:1;fill-rule:nonzero;stroke:#000000;stroke-width:1.30025852;stroke-linecap:round;stroke-linejoin:miter;stroke-miterlimit:4;stroke-dasharray:none;stroke-dashoffset:0;stroke-opacity:1"
         id="rect5450"
         width="309.32474"
         height="134.32475"
         x="180.65013"
         y="38.012333"
         mask="none" />
    </clipPath>
  </defs>
  <sodipodi:namedview
     id="base"
     pagecolor="#ffffff"
     bordercolor="#666666"
     borderopacity="1.0"
     inkscape:pageopacity="0.0"
     inkscape:pageshadow="2"
     inkscape:zoom="2.8"
     inkscape:cx="326.5203"
     inkscape:cy="924.24844"
     inkscape:document-units="px"
     inkscape:current-layer="layer3"
     showgrid="true"
     inkscape:snap-bbox="true"
     inkscape:bbox-nodes="true"
     inkscape:bbox-paths="true"
     inkscape:snap-bbox-midpoints="true"
     inkscape:snap-bbox-edge-midpoints="true"
     inkscape:object-paths="true"
     inkscape:snap-intersection-paths="true"
     inkscape:object-nodes="true"
     inkscape:snap-smooth-nodes="true"
     inkscape:snap-midpoints="true"
     inkscape:snap-object-midpoints="true"
     inkscape:snap-center="true"
     inkscape:snap-text-baseline="true">
    <inkscape:grid
       type="xygrid"
       id="grid4499" />
  </sodipodi:namedview>
  <metadata
     id="metadata7">
    <rdf:RDF>
      <cc:Work
         rdf:about="">
        <dc:format>image/svg+xml</dc:format>
        <dc:type
           rdf:resource="http://purl.org/dc/dcmitype/StillImage" />
        <dc:title></dc:title>
      </cc:Work>
    </rdf:RDF>
  </metadata>
  <g
     inkscape:label="Layer 1"
     inkscape:groupmode="layer"
     id="layer1">
    <g
       id="g5431"
       mask="url(#mask5444)"
       clip-path="url(#clipPath5448)">
      <g
         mask="none"
         id="g5316">
        <path
           id="rect5335"
           d="m 185,47.361328 0,15.000877 120,0 0,-8.77e-4 45,15.000877 0,0 135,0 0,-30.000877 -135,0 -45,0 z"
           style="opacity:1;fill:#ffe92d;fill-opacity:0.39215686;fill-rule:nonzero;stroke:none;stroke-width:1.25;stroke-linecap:round;stroke-linejoin:miter;stroke-miterlimit:4;stroke-dasharray:none;stroke-dashoffset:0;stroke-opacity:1"
           inkscape:connector-curvature="0"
           sodipodi:nodetypes="ccccccccccc" />
        <rect
           style="opacity:1;fill:#ffc42d;fill-opacity:0.39215686;fill-rule:nonzero;stroke:none;stroke-width:1.25;stroke-linecap:round;stroke-linejoin:miter;stroke-miterlimit:4;stroke-dasharray:none;stroke-dashoffset:0;stroke-opacity:1"
           id="rect5333"
           width="135"
           height="80.000008"
           x="350"
           y="77.362206" />
        <rect
           y="62.362206"
           x="185"
           height="80.000008"
           width="120"
           id="rect5331"
           style="opacity:1;fill:#ffc42d;fill-opacity:0.39215686;fill-rule:nonzero;stroke:none;stroke-width:1.25;stroke-linecap:round;stroke-linejoin:miter;stroke-miterlimit:4;stroke-dasharray:none;stroke-dashoffset:0;stroke-opacity:1" />
        <path
           id="path4421"
           style="fill:none;stroke-linecap:butt;stroke-linejoin:round"
           d="m 161.50813,240.10725 345.33125,0 0,-209.988745 -345.33125,0 0,209.988745"
           inkscape:connector-curvature="0" />
        <g
           style="stroke-linecap:butt;stroke-linejoin:round"
           clip-path="url(#p5793a977ee)"
           id="g4428"
           transform="matrix(1.1600218,0,0,0.7652173,165.73255,38.214147)">
          <path
             style="fill:none;fill-rule:evenodd;stroke:#000000;stroke-width:0.79604166;stroke-linecap:butt;stroke-linejoin:miter;stroke-opacity:1;stroke-miterlimit:4;stroke-dasharray:none"
             d="m 7.9890309,162.23896 0,-26.13637 112.0668591,-1e-5 0,-104.545455 38.79237,19.602275 0,104.54547 124.99766,0 0,6.53409"
             id="path4882"
             inkscape:connector-curvature="0"
             sodipodi:nodetypes="cccccccc" />
        </g>
        <g
           id="g4567"
           transform="matrix(0.92858862,0,0,0.41157811,20.368294,58.473663)"
           style="stroke-linecap:butt;stroke-linejoin:round;stroke-width:1.213175;stroke-miterlimit:4;stroke-dasharray:none;stroke:#d40000;fill:none">
          <path
             id="path4433"
             style="fill:none;stroke:#d40000;stroke-width:1.213175;stroke-linecap:square;stroke-linejoin:round;stroke-miterlimit:4;stroke-dasharray:none"
             d="m 183.33156,68.17638 1.49575,7.25275 1.745,9.968 2.119,13.8555 2.99137,21.65338 5.48438,39.97625 2.24362,14.16375 1.745,9.4 1.49575,6.685 1.371,4.875 1.12188,3.03 0.99712,1.93375 0.8725,1.08875 0.74788,0.47875 0.62325,0.0775 0.62312,-0.2175 0.62325,-0.51125 0.74788,-0.99625 0.8725,-1.68375 0.99713,-2.5975 1.12187,-3.745 1.24637,-5.12875 1.49575,-7.38625 1.745,-10.1 2.119,-13.975 3.11613,-22.67013 5.11038,-37.249 2.24362,-14.2485 1.745,-9.485125 1.49575,-6.768875 1.371,-4.960375 1.12187,-3.1035 0.99713,-2.001875 0.8725,-1.150125 0.74787,-0.53175 0.62325,-0.1205 0.62313,0.173375 0.62325,0.4665 0.74787,0.94425 0.8725,1.624625 0.99713,2.53025 1.12187,3.674625 1.24638,5.055 1.49575,7.30625 1.745,10.021125 2.119,13.90375 2.99137,21.687755 5.35975,39.08975 2.24363,14.22125 1.745,9.45625 1.49575,6.74125 1.371,4.9325 1.12187,3.07875 0.99713,1.97875 0.8725,1.13 0.74787,0.51375 0.62325,0.10625 0.62313,-0.1875 0.62325,-0.48125 0.74787,-0.9625 0.8725,-1.64375 0.99713,-2.5525 1.12187,-3.69875 1.24638,-5.08 1.49575,-7.3325 1.745,-10.0475 2.11875,-13.9275 2.99125,-21.70488 5.36,-39.068125 2.24375,-14.192375 1.745,-9.428375 1.49625,-6.7125 1.37,-4.90375 1.1225,-3.05425 0.9975,-1.9565 0.8725,-1.109625 0.7475,-0.49675 0.6225,-0.091 0.62375,0.20275 0.62375,0.49575 0.7475,0.979 0.8725,1.664375 0.9975,2.5745 1.12125,3.722125 1.1225,4.55 0,0"
             clip-path="url(#p5793a977ee)"
             inkscape:connector-curvature="0" />
          <path
             id="path4436"
             style="fill:none;stroke:#d40000;stroke-width:1.213175;stroke-linecap:square;stroke-linejoin:round;stroke-miterlimit:4;stroke-dasharray:none"
             d="m 307.85156,68.17638 2.38375,15.23725 2.43,13.759375 2.43,12.171255 2.43125,10.76637 2.43,9.52362 2.43125,8.4245 2.43,7.45213 2.4775,6.711 2.4775,5.92287 2.52375,5.31875 2.52375,4.6825 2.57125,4.195 2.6175,3.74625 2.66375,3.3375 2.75875,3.01375 2.85125,2.705 2.94375,2.41375 3.085,2.17125 0.23375,0.15125 0,0"
             clip-path="url(#p5793a977ee)"
             inkscape:connector-curvature="0" />
          <path
             id="path4439"
             style="fill:none;stroke:#d40000;stroke-width:1.213175;stroke-linecap:square;stroke-linejoin:round;stroke-miterlimit:4;stroke-dasharray:none"
             d="m 354.54531,189.97725 2.805,1.985 5.0475,3.9975 3.78625,2.83625 2.665,1.65875 2.24375,1.07876 1.9625,0.65625 1.96375,0.36249 1.8225,0.06 1.8225,-0.20875 1.96375,-0.51625 2.1025,-0.86625 2.24375,-1.2375 2.665,-1.80375 3.78625,-2.93875 5.46875,-4.2275 2.66375,-1.715 2.24375,-1.1375 2.10375,-0.7575 1.9625,-0.40625 1.8225,-0.10125 1.82375,0.1675 1.9625,0.47375 1.96375,0.76125 2.24375,1.18 2.52375,1.65375 3.505,2.67 6.73125,5.19375 2.66375,1.65875 2.24375,1.07875 1.96375,0.65625 1.9625,0.3625 1.82375,0.06 1.8225,-0.20875 1.96375,-0.51625 2.1025,-0.86625 2.24375,-1.2375 2.66375,-1.80375 3.78625,-2.93875 5.46875,-4.2275 2.665,-1.715 2.24375,-1.1375 2.1025,-0.7575 1.96375,-0.40625 1.8225,-0.10125 1.82375,0.1675 1.9625,0.47375 1.96375,0.76125 2.2425,1.18 2.525,1.65375 3.505,2.67 6.73125,5.19375 2.1025,1.34 0,0"
             clip-path="url(#p5793a977ee)"
             inkscape:connector-curvature="0" />
        </g>
        <path
           style="fill:none;fill-rule:evenodd;stroke:#000000;stroke-width:1px;stroke-linecap:butt;stroke-linejoin:miter;stroke-opacity:1;marker-start:url(#marker4224);marker-end:url(#marker4282)"
           d="m 300,62.362205 0,15"
           id="path4216"
           inkscape:connector-curvature="0" />
      </g>
    </g>
  </g>
  <g
     inkscape:groupmode="layer"
     id="layer2"
     inkscape:label="Layer 2"
     style="display:inline;stroke-linecap:butt;stroke-linejoin:round">
    <path
       style="fill:none;fill-rule:evenodd;stroke:#000000;stroke-width:1.25;stroke-linecap:butt;stroke-linejoin:miter;stroke-miterlimit:4;stroke-dasharray:none;stroke-opacity:1;marker-end:url(#marker5390)"
       d="m 220.1102,99.126574 50,0"
       id="path4572"
       inkscape:connector-curvature="0" />
    <path
       style="fill:none;fill-rule:evenodd;stroke:#000000;stroke-width:1px;stroke-linecap:butt;stroke-linejoin:miter;stroke-opacity:1;marker-start:url(#Arrow2Mstart);marker-end:url(#marker4924)"
       d="m 180,132.3622 -30,0 0,-30"
       id="path4884"
       inkscape:connector-curvature="0" />
    <path
       inkscape:connector-curvature="0"
       id="path4978"
       d="m 306,58.362205 50,0"
       style="fill:none;fill-rule:evenodd;stroke:#000000;stroke-width:1.25;stroke-linecap:butt;stroke-linejoin:miter;stroke-miterlimit:4;stroke-dasharray:none;stroke-opacity:1;marker-end:url(#marker4984)" />
    <path
       style="opacity:1;fill:#ffffff;fill-opacity:0.78431373;fill-rule:nonzero;stroke:#000000;stroke-width:0.625;stroke-linecap:round;stroke-linejoin:miter;stroke-miterlimit:4;stroke-dasharray:none;stroke-dashoffset:0;stroke-opacity:1"
       id="path5372"
       sodipodi:type="arc"
       sodipodi:cx="202.5"
       sodipodi:cy="55.862206"
       sodipodi:rx="7.5"
       sodipodi:ry="7.5"
       sodipodi:start="0"
       sodipodi:end="6.2766578"
       sodipodi:open="true"
       d="m 210,55.862206 a 7.5,7.5 0 0 1 -7.48776,7.49999 7.5,7.5 0 0 1 -7.5122,-7.475512 7.5,7.5 0 0 1 7.46324,-7.524389 7.5,7.5 0 0 1 7.53656,7.450955" />
    <path
       d="m 210,97.862206 a 7.5,7.5 0 0 1 -7.48776,7.499994 7.5,7.5 0 0 1 -7.5122,-7.475516 7.5,7.5 0 0 1 7.46324,-7.524389 7.5,7.5 0 0 1 7.53656,7.450955"
       sodipodi:open="true"
       sodipodi:end="6.2766578"
       sodipodi:start="0"
       sodipodi:ry="7.5"
       sodipodi:rx="7.5"
       sodipodi:cy="97.862206"
       sodipodi:cx="202.5"
       sodipodi:type="arc"
       id="path5378"
       style="opacity:1;fill:#ffffff;fill-opacity:0.78431373;fill-rule:nonzero;stroke:#000000;stroke-width:0.625;stroke-linecap:round;stroke-linejoin:miter;stroke-miterlimit:4;stroke-dasharray:none;stroke-dashoffset:0;stroke-opacity:1" />
  </g>
  <g
     inkscape:groupmode="layer"
     id="layer3"
     inkscape:label="text"
     style="display:inline;stroke-linecap:butt;stroke-linejoin:round">
    <text
       xml:space="preserve"
       style="font-style:normal;font-variant:normal;font-weight:normal;font-stretch:normal;font-size:12.5px;line-height:125%;font-family:sans-serif;-inkscape-font-specification:'sans-serif, Normal';text-align:center;letter-spacing:0px;word-spacing:0px;writing-mode:lr-tb;text-anchor:middle;display:inline;fill:#000000;fill-opacity:1;stroke:none;stroke-width:1px;stroke-linecap:butt;stroke-linejoin:miter;stroke-opacity:1"
       x="244"
       y="96.362206"
       id="text4854"
       sodipodi:linespacing="125%"><tspan
         sodipodi:role="line"
         id="tspan4856"
         style="stroke-linecap:butt;stroke-linejoin:round"
         x="244"
         y="96.362206">e\sups{$-$}</tspan></text>
    <text
       xml:space="preserve"
       style="font-style:normal;font-variant:normal;font-weight:normal;font-stretch:normal;font-size:12.5px;line-height:125%;font-family:sans-serif;-inkscape-font-specification:'sans-serif, Normal';text-align:center;letter-spacing:0px;word-spacing:0px;writing-mode:lr-tb;text-anchor:middle;display:inline;fill:#000000;fill-opacity:1;stroke:none;stroke-width:1px;stroke-linecap:butt;stroke-linejoin:miter;stroke-opacity:1"
       x="150"
       y="98.362206"
       id="text4964"
       sodipodi:linespacing="125%"><tspan
         sodipodi:role="line"
         id="tspan4966"
         style="stroke-linecap:butt;stroke-linejoin:round"
         x="150"
         y="98.362206">$E$</tspan></text>
    <text
       xml:space="preserve"
       style="font-style:normal;font-variant:normal;font-weight:normal;font-stretch:normal;font-size:12.5px;line-height:125%;font-family:sans-serif;-inkscape-font-specification:'sans-serif, Normal';text-align:center;letter-spacing:0px;word-spacing:0px;writing-mode:lr-tb;text-anchor:middle;display:inline;fill:#000000;fill-opacity:1;stroke:none;stroke-width:1px;stroke-linecap:butt;stroke-linejoin:miter;stroke-opacity:1"
       x="186"
       y="133.36221"
       id="text4968"
       sodipodi:linespacing="125%"><tspan
         sodipodi:role="line"
         id="tspan4970"
         style="stroke-linecap:butt;stroke-linejoin:round"
         x="186"
         y="133.36221">$x$</tspan></text>
    <text
       sodipodi:linespacing="125%"
       id="text4980"
       y="54.362206"
       x="328"
       style="font-style:normal;font-variant:normal;font-weight:normal;font-stretch:normal;font-size:12.5px;line-height:125%;font-family:sans-serif;-inkscape-font-specification:'sans-serif, Normal';text-align:center;letter-spacing:0px;word-spacing:0px;writing-mode:lr-tb;text-anchor:middle;display:inline;fill:#000000;fill-opacity:1;stroke:none;stroke-width:1px;stroke-linecap:butt;stroke-linejoin:miter;stroke-opacity:1"
       xml:space="preserve"><tspan
         y="54.362206"
         x="328"
         style="stroke-linecap:butt;stroke-linejoin:round"
         id="tspan4982"
         sodipodi:role="line">e\sups{$-$}</tspan></text>
    <text
       xml:space="preserve"
       style="font-style:normal;font-variant:normal;font-weight:normal;font-stretch:normal;font-size:12.5px;line-height:125%;font-family:sans-serif;-inkscape-font-specification:'sans-serif, Normal';text-align:center;letter-spacing:0px;word-spacing:0px;writing-mode:lr-tb;text-anchor:middle;display:inline;fill:#000000;fill-opacity:1;stroke:none;stroke-width:1px;stroke-linecap:butt;stroke-linejoin:miter;stroke-opacity:1"
       x="327"
       y="104.3622"
       id="text5348"
       sodipodi:linespacing="125%"><tspan
         sodipodi:role="line"
         id="tspan5350"
         style="stroke-linecap:butt;stroke-linejoin:round"
         x="327"
         y="104.3622">$T(E)$</tspan></text>
    <text
       xml:space="preserve"
       style="font-style:normal;font-variant:normal;font-weight:normal;font-stretch:normal;font-size:12.5px;line-height:125%;font-family:sans-serif;-inkscape-font-specification:'sans-serif, Normal';text-align:start;letter-spacing:0px;word-spacing:0px;writing-mode:lr-tb;text-anchor:start;display:inline;fill:#000000;fill-opacity:1;stroke:none;stroke-width:1px;stroke-linecap:butt;stroke-linejoin:miter;stroke-opacity:1"
       x="351.70471"
       y="92.362206"
       id="text5352"
       sodipodi:linespacing="125%"><tspan
         sodipodi:role="line"
         id="tspan5354"
         style="text-align:start;text-anchor:start;stroke-linecap:butt;stroke-linejoin:round"
         x="351.70471"
         y="92.362206">$V_0$</tspan></text>
    <text
       sodipodi:linespacing="125%"
       id="text5356"
       y="58.362206"
       x="244"
       style="font-style:normal;font-variant:normal;font-weight:normal;font-stretch:normal;font-size:12.5px;line-height:125%;font-family:sans-serif;-inkscape-font-specification:'sans-serif, Normal';text-align:center;letter-spacing:0px;word-spacing:0px;writing-mode:lr-tb;text-anchor:middle;display:inline;fill:#000000;fill-opacity:1;stroke:none;stroke-width:1px;stroke-linecap:butt;stroke-linejoin:miter;stroke-opacity:1"
       xml:space="preserve"><tspan
         y="58.362206"
         x="244"
         style="stroke-linecap:butt;stroke-linejoin:round"
         id="tspan5358"
         sodipodi:role="line">$E&gt;V$</tspan></text>
    <text
       xml:space="preserve"
       style="font-style:normal;font-variant:normal;font-weight:normal;font-stretch:normal;font-size:12.5px;line-height:125%;font-family:sans-serif;-inkscape-font-specification:'sans-serif, Normal';text-align:center;letter-spacing:0px;word-spacing:0px;writing-mode:lr-tb;text-anchor:middle;display:inline;fill:#000000;fill-opacity:1;stroke:none;stroke-width:1px;stroke-linecap:butt;stroke-linejoin:miter;stroke-opacity:1"
       x="244"
       y="132.36221"
       id="text5360"
       sodipodi:linespacing="125%"><tspan
         sodipodi:role="line"
         id="tspan5362"
         style="stroke-linecap:butt;stroke-linejoin:round"
         x="244"
         y="132.36221">$E&lt;V$</tspan></text>
    <text
       sodipodi:linespacing="125%"
       id="text5364"
       y="70.362198"
       x="419"
       style="font-style:normal;font-variant:normal;font-weight:normal;font-stretch:normal;font-size:12.5px;line-height:125%;font-family:sans-serif;-inkscape-font-specification:'sans-serif, Normal';text-align:center;letter-spacing:0px;word-spacing:0px;writing-mode:lr-tb;text-anchor:middle;display:inline;fill:#000000;fill-opacity:1;stroke:none;stroke-width:1px;stroke-linecap:butt;stroke-linejoin:miter;stroke-opacity:1"
       xml:space="preserve"><tspan
         y="70.362198"
         x="419"
         style="stroke-linecap:butt;stroke-linejoin:round"
         id="tspan5366"
         sodipodi:role="line">$T(E)=\sum_n{G_0}$</tspan></text>
    <text
       xml:space="preserve"
       style="font-style:normal;font-variant:normal;font-weight:normal;font-stretch:normal;font-size:12.5px;line-height:125%;font-family:sans-serif;-inkscape-font-specification:'sans-serif, Normal';text-align:center;letter-spacing:0px;word-spacing:0px;writing-mode:lr-tb;text-anchor:middle;display:inline;fill:#000000;fill-opacity:1;stroke:none;stroke-width:1px;stroke-linecap:butt;stroke-linejoin:miter;stroke-opacity:1"
       x="202.69997"
       y="60.362206"
       id="text5374"
       sodipodi:linespacing="125%"><tspan
         sodipodi:role="line"
         id="tspan5376"
         style="stroke-linecap:butt;stroke-linejoin:round"
         x="202.69997"
         y="60.362206">2</tspan></text>
    <text
       sodipodi:linespacing="125%"
       id="text5380"
       y="102.36221"
       x="202.5002"
       style="font-style:normal;font-variant:normal;font-weight:normal;font-stretch:normal;font-size:12.5px;line-height:125%;font-family:sans-serif;-inkscape-font-specification:'sans-serif, Normal';text-align:center;letter-spacing:0px;word-spacing:0px;writing-mode:lr-tb;text-anchor:middle;display:inline;fill:#000000;fill-opacity:1;stroke:none;stroke-width:1px;stroke-linecap:butt;stroke-linejoin:miter;stroke-opacity:1"
       xml:space="preserve"><tspan
         y="102.36221"
         x="202.5002"
         style="stroke-linecap:butt;stroke-linejoin:round"
         id="tspan5382"
         sodipodi:role="line">1</tspan></text>
    <text
       sodipodi:linespacing="125%"
       id="text4340"
       y="74.362206"
       x="297.0238"
       style="font-style:normal;font-variant:normal;font-weight:normal;font-stretch:normal;font-size:12.5px;line-height:125%;font-family:sans-serif;-inkscape-font-specification:'sans-serif, Normal';text-align:end;letter-spacing:0px;word-spacing:0px;writing-mode:lr-tb;text-anchor:end;display:inline;fill:#000000;fill-opacity:1;stroke:none;stroke-width:1px;stroke-linecap:butt;stroke-linejoin:miter;stroke-opacity:1"
       xml:space="preserve"><tspan
         y="74.362206"
         x="297.0238"
         style="text-align:end;text-anchor:end;stroke-linecap:butt;stroke-linejoin:round"
         id="tspan4342"
         sodipodi:role="line">$eV$</tspan></text>
  </g>
</svg>
