<?xml version="1.0" encoding="UTF-8" standalone="no"?>
<!-- Created with Inkscape (http://www.inkscape.org/) -->

<svg
   xmlns:dc="http://purl.org/dc/elements/1.1/"
   xmlns:cc="http://creativecommons.org/ns#"
   xmlns:rdf="http://www.w3.org/1999/02/22-rdf-syntax-ns#"
   xmlns:svg="http://www.w3.org/2000/svg"
   xmlns="http://www.w3.org/2000/svg"
   xmlns:xlink="http://www.w3.org/1999/xlink"
   xmlns:sodipodi="http://sodipodi.sourceforge.net/DTD/sodipodi-0.dtd"
   xmlns:inkscape="http://www.inkscape.org/namespaces/inkscape"
   width="210mm"
   height="297mm"
   viewBox="0 0 744.09448819 1052.3622047"
   id="svg2"
   version="1.1"
   inkscape:version="0.91 r13725"
   sodipodi:docname="tenom_surface.svg"
   inkscape:export-filename="/Users/alansanders/Documents/PhD/Git/Thesis/2_theory/figures/tenom_surface.png"
   inkscape:export-xdpi="300"
   inkscape:export-ydpi="300">
  <sodipodi:namedview
     id="base"
     pagecolor="#ffffff"
     bordercolor="#666666"
     borderopacity="1.0"
     inkscape:pageopacity="0.0"
     inkscape:pageshadow="2"
     inkscape:zoom="1.4"
     inkscape:cx="129.16685"
     inkscape:cy="847.17436"
     inkscape:document-units="px"
     inkscape:current-layer="g12878"
     showgrid="true"
     inkscape:snap-bbox="true"
     inkscape:bbox-paths="true"
     inkscape:bbox-nodes="true"
     inkscape:snap-bbox-edge-midpoints="true"
     inkscape:snap-bbox-midpoints="true"
     inkscape:object-paths="true"
     inkscape:snap-intersection-paths="true"
     inkscape:object-nodes="true"
     inkscape:snap-smooth-nodes="true"
     inkscape:snap-midpoints="true"
     inkscape:snap-object-midpoints="true"
     inkscape:snap-center="true"
     inkscape:snap-text-baseline="true">
    <inkscape:grid
       type="xygrid"
       id="grid4136" />
  </sodipodi:namedview>
  <defs
     id="defs4">
    <linearGradient
       inkscape:collect="always"
       id="linearGradient4327">
      <stop
         style="stop-color:#000000;stop-opacity:1;"
         offset="0"
         id="stop4329" />
      <stop
         style="stop-color:#000000;stop-opacity:0;"
         offset="1"
         id="stop4331" />
    </linearGradient>
    <linearGradient
       inkscape:collect="always"
       id="linearGradient4153">
      <stop
         style="stop-color:#ffd42a;stop-opacity:1;"
         offset="0"
         id="stop13060" />
      <stop
         style="stop-color:#ffd42a;stop-opacity:0;"
         offset="1"
         id="stop13062" />
    </linearGradient>
    <linearGradient
       inkscape:collect="always"
       id="linearGradient13030">
      <stop
         style="stop-color:#ffffff;stop-opacity:1"
         offset="0"
         id="stop13032" />
      <stop
         id="stop13038"
         offset="0.5"
         style="stop-color:#fff001;stop-opacity:1" />
      <stop
         style="stop-color:#ff0000;stop-opacity:1"
         offset="1"
         id="stop13034" />
    </linearGradient>
    <linearGradient
       id="linearGradient4153-4"
       inkscape:collect="always">
      <stop
         id="stop12870"
         offset="0"
         style="stop-color:#000000;stop-opacity:1" />
      <stop
         style="stop-color:#ffffff;stop-opacity:1"
         offset="0.08083832"
         id="stop12874" />
      <stop
         id="stop12876"
         offset="0.91916168"
         style="stop-color:#ffffff;stop-opacity:1" />
      <stop
         id="stop12872"
         offset="1"
         style="stop-color:#000000;stop-opacity:1" />
    </linearGradient>
    <linearGradient
       inkscape:collect="always"
       id="linearGradient12844">
      <stop
         style="stop-color:#e7f9f8;stop-opacity:1;"
         offset="0"
         id="stop12846" />
      <stop
         style="stop-color:#e7f9f8;stop-opacity:0;"
         offset="1"
         id="stop12848" />
    </linearGradient>
    <marker
       inkscape:stockid="Arrow2Mend"
       orient="auto"
       refY="0.0"
       refX="0.0"
       id="marker12207"
       style="overflow:visible;"
       inkscape:isstock="true">
      <path
         id="path12209"
         style="fill-rule:evenodd;stroke-width:0.625;stroke-linejoin:round;stroke:#ff0000;stroke-opacity:1;fill:#ff0000;fill-opacity:1"
         d="M 8.7185878,4.0337352 L -2.2072895,0.016013256 L 8.7185884,-4.0017078 C 6.9730900,-1.6296469 6.9831476,1.6157441 8.7185878,4.0337352 z "
         transform="scale(0.6) rotate(180) translate(0,0)" />
    </marker>
    <marker
       inkscape:stockid="Arrow1Mend"
       orient="auto"
       refY="0.0"
       refX="0.0"
       id="Arrow1Mend"
       style="overflow:visible;"
       inkscape:isstock="true">
      <path
         id="path4194"
         d="M 0.0,0.0 L 5.0,-5.0 L -12.5,0.0 L 5.0,5.0 L 0.0,0.0 z "
         style="fill-rule:evenodd;stroke:#ff0000;stroke-width:1pt;stroke-opacity:1;fill:#ff0000;fill-opacity:1"
         transform="scale(0.4) rotate(180) translate(10,0)" />
    </marker>
    <marker
       inkscape:stockid="Arrow1Send"
       orient="auto"
       refY="0.0"
       refX="0.0"
       id="Arrow1Send"
       style="overflow:visible;"
       inkscape:isstock="true">
      <path
         id="path4200"
         d="M 0.0,0.0 L 5.0,-5.0 L -12.5,0.0 L 5.0,5.0 L 0.0,0.0 z "
         style="fill-rule:evenodd;stroke:#ff0000;stroke-width:1pt;stroke-opacity:1;fill:#ff0000;fill-opacity:1"
         transform="scale(0.2) rotate(180) translate(6,0)" />
    </marker>
    <marker
       inkscape:isstock="true"
       style="overflow:visible;"
       id="marker11915"
       refX="0.0"
       refY="0.0"
       orient="auto"
       inkscape:stockid="Arrow2Lend">
      <path
         transform="scale(1.1) rotate(180) translate(1,0)"
         d="M 8.7185878,4.0337352 L -2.2072895,0.016013256 L 8.7185884,-4.0017078 C 6.9730900,-1.6296469 6.9831476,1.6157441 8.7185878,4.0337352 z "
         style="fill-rule:evenodd;stroke-width:0.625;stroke-linejoin:round;stroke:#000000;stroke-opacity:1;fill:#000000;fill-opacity:1"
         id="path11917" />
    </marker>
    <marker
       inkscape:stockid="Arrow2Lend"
       orient="auto"
       refY="0.0"
       refX="0.0"
       id="marker11759"
       style="overflow:visible;"
       inkscape:isstock="true"
       inkscape:collect="always">
      <path
         id="path11761"
         style="fill-rule:evenodd;stroke-width:0.625;stroke-linejoin:round;stroke:#000000;stroke-opacity:1;fill:#000000;fill-opacity:1"
         d="M 8.7185878,4.0337352 L -2.2072895,0.016013256 L 8.7185884,-4.0017078 C 6.9730900,-1.6296469 6.9831476,1.6157441 8.7185878,4.0337352 z "
         transform="scale(1.1) rotate(180) translate(1,0)" />
    </marker>
    <marker
       inkscape:stockid="Arrow2Lend"
       orient="auto"
       refY="0.0"
       refX="0.0"
       id="marker11275"
       style="overflow:visible;"
       inkscape:isstock="true">
      <path
         id="path11277"
         style="fill-rule:evenodd;stroke-width:0.625;stroke-linejoin:round;stroke:#000000;stroke-opacity:1;fill:#000000;fill-opacity:1"
         d="M 8.7185878,4.0337352 L -2.2072895,0.016013256 L 8.7185884,-4.0017078 C 6.9730900,-1.6296469 6.9831476,1.6157441 8.7185878,4.0337352 z "
         transform="scale(1.1) rotate(180) translate(1,0)" />
    </marker>
    <marker
       inkscape:stockid="Arrow2Lend"
       orient="auto"
       refY="0.0"
       refX="0.0"
       id="marker11231"
       style="overflow:visible;"
       inkscape:isstock="true">
      <path
         id="path11233"
         style="fill-rule:evenodd;stroke-width:0.625;stroke-linejoin:round;stroke:#000000;stroke-opacity:1;fill:#ff0000;fill-opacity:0.39215686"
         d="M 8.7185878,4.0337352 L -2.2072895,0.016013256 L 8.7185884,-4.0017078 C 6.9730900,-1.6296469 6.9831476,1.6157441 8.7185878,4.0337352 z "
         transform="scale(1.1) rotate(180) translate(1,0)" />
    </marker>
    <marker
       inkscape:stockid="Arrow2Lend"
       orient="auto"
       refY="0.0"
       refX="0.0"
       id="marker4757"
       style="overflow:visible;"
       inkscape:isstock="true">
      <path
         id="path4759"
         style="fill-rule:evenodd;stroke-width:0.625;stroke-linejoin:round;stroke:#000000;stroke-opacity:1;fill:#000000;fill-opacity:1"
         d="M 8.7185878,4.0337352 L -2.2072895,0.016013256 L 8.7185884,-4.0017078 C 6.9730900,-1.6296469 6.9831476,1.6157441 8.7185878,4.0337352 z "
         transform="scale(1.1) rotate(180) translate(1,0)" />
    </marker>
    <marker
       inkscape:isstock="true"
       style="overflow:visible;"
       id="marker4531"
       refX="0.0"
       refY="0.0"
       orient="auto"
       inkscape:stockid="Arrow2Lend"
       inkscape:collect="always">
      <path
         transform="scale(1.1) rotate(180) translate(1,0)"
         d="M 8.7185878,4.0337352 L -2.2072895,0.016013256 L 8.7185884,-4.0017078 C 6.9730900,-1.6296469 6.9831476,1.6157441 8.7185878,4.0337352 z "
         style="fill-rule:evenodd;stroke-width:0.625;stroke-linejoin:round;stroke:#000000;stroke-opacity:1;fill:#000000;fill-opacity:1"
         id="path4533" />
    </marker>
    <marker
       inkscape:stockid="Arrow2Mend"
       orient="auto"
       refY="0.0"
       refX="0.0"
       id="Arrow2Mend"
       style="overflow:visible;"
       inkscape:isstock="true">
      <path
         id="path4212"
         style="fill-rule:evenodd;stroke-width:0.625;stroke-linejoin:round;stroke:#ff0000;stroke-opacity:1;fill:#ff0000;fill-opacity:1"
         d="M 8.7185878,4.0337352 L -2.2072895,0.016013256 L 8.7185884,-4.0017078 C 6.9730900,-1.6296469 6.9831476,1.6157441 8.7185878,4.0337352 z "
         transform="scale(0.6) rotate(180) translate(0,0)" />
    </marker>
    <linearGradient
       inkscape:collect="always"
       id="linearGradient4161">
      <stop
         style="stop-color:#ffd42a;stop-opacity:1;"
         offset="0"
         id="stop4163" />
      <stop
         style="stop-color:#ffd42a;stop-opacity:0;"
         offset="1"
         id="stop4165" />
    </linearGradient>
    <linearGradient
       inkscape:collect="always"
       xlink:href="#linearGradient4153"
       id="linearGradient4159"
       x1="360"
       y1="92.362206"
       x2="360"
       y2="52.362206"
       gradientUnits="userSpaceOnUse" />
    <linearGradient
       inkscape:collect="always"
       xlink:href="#linearGradient4161"
       id="linearGradient4167"
       x1="360"
       y1="262.36221"
       x2="360"
       y2="292.36221"
       gradientUnits="userSpaceOnUse" />
    <filter
       inkscape:collect="always"
       style="color-interpolation-filters:sRGB"
       id="filter12453"
       x="-0.036600195"
       width="1.0732004"
       y="-0.1663596"
       height="1.3327192">
      <feGaussianBlur
         inkscape:collect="always"
         stdDeviation="1.962717"
         id="feGaussianBlur12455" />
    </filter>
    <linearGradient
       inkscape:collect="always"
       xlink:href="#linearGradient12844"
       id="linearGradient12850"
       x1="360"
       y1="352.36218"
       x2="360"
       y2="392.36218"
       gradientUnits="userSpaceOnUse" />
    <linearGradient
       inkscape:collect="always"
       xlink:href="#linearGradient4153-4"
       id="linearGradient12932"
       gradientUnits="userSpaceOnUse"
       x1="119.5"
       y1="222.36218"
       x2="620.5"
       y2="222.36218" />
    <mask
       maskUnits="userSpaceOnUse"
       id="mask12928">
      <rect
         style="opacity:1;fill:url(#linearGradient12932);fill-opacity:1;fill-rule:nonzero;stroke:#000000;stroke-width:1;stroke-linecap:round;stroke-linejoin:miter;stroke-miterlimit:4;stroke-dasharray:none;stroke-dashoffset:0;stroke-opacity:1"
         id="rect12930"
         width="500"
         height="320"
         x="120"
         y="52.362183" />
    </mask>
    <clipPath
       clipPathUnits="userSpaceOnUse"
       id="clipPath12934">
      <rect
         y="52.362183"
         x="120"
         height="320"
         width="500"
         id="rect12936"
         style="opacity:1;fill:none;fill-opacity:1;fill-rule:nonzero;stroke:#000000;stroke-width:5;stroke-linecap:round;stroke-linejoin:miter;stroke-miterlimit:4;stroke-dasharray:none;stroke-dashoffset:0;stroke-opacity:1" />
    </clipPath>
    <filter
       inkscape:collect="always"
       style="color-interpolation-filters:sRGB"
       id="filter13026"
       x="-0.23288855"
       width="1.4657771"
       y="-0.24755944"
       height="1.4951189">
      <feGaussianBlur
         inkscape:collect="always"
         stdDeviation="5.8222137"
         id="feGaussianBlur13028" />
    </filter>
    <radialGradient
       inkscape:collect="always"
       xlink:href="#linearGradient13030"
       id="radialGradient13036"
       cx="360.00003"
       cy="236.0975"
       fx="360.00003"
       fy="236.0975"
       r="43.973315"
       gradientTransform="matrix(0.68242985,-1.3322659e-7,1.7248914e-7,0.90964256,114.3252,7.5978926)"
       gradientUnits="userSpaceOnUse" />
    <linearGradient
       inkscape:collect="always"
       xlink:href="#linearGradient4327"
       id="linearGradient4333"
       x1="360"
       y1="262.36221"
       x2="360"
       y2="292.36221"
       gradientUnits="userSpaceOnUse" />
  </defs>
  <metadata
     id="metadata7">
    <rdf:RDF>
      <cc:Work
         rdf:about="">
        <dc:format>image/svg+xml</dc:format>
        <dc:type
           rdf:resource="http://purl.org/dc/dcmitype/StillImage" />
        <dc:title />
      </cc:Work>
    </rdf:RDF>
  </metadata>
  <g
     inkscape:label="Layer 1"
     inkscape:groupmode="layer"
     id="layer1">
    <g
       id="g12878"
       mask="url(#mask12928)"
       clip-path="url(#clipPath12934)">
      <path
         style="fill:url(#radialGradient13036);fill-rule:evenodd;stroke:none;stroke-width:1px;stroke-linecap:butt;stroke-linejoin:miter;stroke-opacity:1;fill-opacity:1;filter:url(#filter13026)"
         d="m 340,192.36218 c -10,20 -10,30 -10,40 0,10 60,10 60,0 0,-10 0,-20 -10,-40 -5.96285,-11.9257 -34.03715,-11.9257 -40,0 z"
         id="path12944"
         inkscape:connector-curvature="0"
         sodipodi:nodetypes="sssss" />
      <rect
         y="292.36218"
         x="120"
         height="100"
         width="500"
         id="rect12842"
         style="opacity:1;fill:url(#linearGradient12850);fill-opacity:1;fill-rule:nonzero;stroke:#000000;stroke-width:1;stroke-linecap:round;stroke-linejoin:miter;stroke-miterlimit:4;stroke-dasharray:none;stroke-dashoffset:0;stroke-opacity:1" />
      <path
         mask="none"
         sodipodi:nodetypes="cccc"
         inkscape:connector-curvature="0"
         id="path4138"
         d="m 310,51.86221 20,99.99999 c 20,80 40,80 60,0 l 20,-99.99999"
         style="fill:url(#linearGradient4159);fill-rule:evenodd;stroke:#000000;stroke-width:1px;stroke-linecap:butt;stroke-linejoin:miter;stroke-opacity:1;fill-opacity:1" />
      <rect
         mask="none"
         y="232.62279"
         x="119.76059"
         height="59.978817"
         width="499.97882"
         id="rect4142"
         style="opacity:1;fill:#ffd42a;fill-opacity:1;fill-rule:nonzero;stroke:#000000;stroke-width:0.52118295;stroke-linecap:butt;stroke-linejoin:miter;stroke-miterlimit:4;stroke-dasharray:none;stroke-dashoffset:0;stroke-opacity:1" />
      <path
         mask="none"
         style="fill:url(#linearGradient4167);fill-rule:evenodd;stroke:url(#linearGradient4333);stroke-width:1;stroke-linecap:butt;stroke-linejoin:miter;stroke-opacity:1;fill-opacity:1;stroke-miterlimit:4;stroke-dasharray:3, 3;stroke-dashoffset:0"
         d="m 330,300.26415 c 20,-80 40,-80 60,0"
         id="path4144"
         inkscape:connector-curvature="0"
         sodipodi:nodetypes="cc" />
      <path
         mask="none"
         sodipodi:nodetypes="ccc"
         inkscape:connector-curvature="0"
         id="path4151"
         d="m 360,272.3622 c 0,-20 20,-40 60,-40 -40,0 -60,-60 -60,-120"
         style="fill:#ff0000;fill-rule:evenodd;stroke:#000000;stroke-width:1px;stroke-linecap:butt;stroke-linejoin:miter;stroke-opacity:1;fill-opacity:0.39215687" />
      <path
         mask="none"
         sodipodi:nodetypes="ccc"
         inkscape:connector-curvature="0"
         id="path4177"
         d="m 360,292.3622 120,40 120,40"
         style="fill:none;fill-rule:evenodd;stroke:#000000;stroke-width:1px;stroke-linecap:butt;stroke-linejoin:miter;stroke-opacity:1;marker-end:;marker-mid:url(#marker4757)" />
      <path
         mask="none"
         sodipodi:nodetypes="ccc"
         style="fill:none;fill-rule:evenodd;stroke:#000000;stroke-width:1px;stroke-linecap:butt;stroke-linejoin:miter;stroke-opacity:1;marker-mid:url(#marker4531);marker-end:"
         d="m 140,372.3622 110,-40 110,-40"
         id="path4529"
         inkscape:connector-curvature="0" />
      <g
         mask="none"
         transform="matrix(0.91870651,-0.39494094,0.39494094,0.91870651,-36.960169,208.58138)"
         id="g12493">
        <path
           sodipodi:nodetypes="ccsssssssssssccssccssssssssscssssscssccssscssscscscc"
           inkscape:connector-curvature="0"
           id="path11913"
           d="m 399.93866,176.94734 18.45489,0 c 0.61675,-3.02572 1.2335,-6.04252 1.85025,-8.46796 0.61674,-2.42544 1.23349,-4.24288 1.85024,-5.10471 0.61674,-0.86183 1.2335,-0.7581 1.85026,0.28598 0.61674,1.04407 1.2335,3.0278 1.85023,5.56308 0.61676,2.53531 1.23351,5.61114 1.85025,8.63071 0.61676,3.01957 1.23351,5.96587 1.85025,8.27043 0.61676,2.30453 1.2335,3.95113 1.85026,4.62536 0.61675,0.67423 1.23349,0.36711 1.85025,-0.85678 0.61674,-1.22387 1.23348,-3.36271 1.85024,-5.9986 0.61674,-2.6359 1.2335,-5.75696 1.85026,-8.75798 0.61674,-3.00101 1.23349,-5.8647 1.85024,-8.0389 0.61675,-2.17419 1.2335,-3.64313 1.85023,-4.127 0.61677,-0.48386 1.23351,0.0254 1.85025,1.42404 0.61677,1.39865 1.23352,3.68381 1.85027,6.40947 0.61675,2.72567 1.23348,5.87914 1.85023,8.84926 0.61676,2.97012 1.23349,5.73943 1.85026,7.77434 0.61674,2.03492 1.2335,3.32018 1.85026,3.61169 0.61673,0.2915 1.23348,-0.41776 1.85022,-1.98545 0.61675,-1.56768 1.2335,-3.98978 1.85026,-6.79401 0.61674,-2.80423 1.2335,-5.97716 1.85025,-8.90417 0.61674,-2.92701 1.2335,-5.59059 1.85024,-7.47785 0.61676,-1.88727 1.2335,-2.98357 1.85025,-3.08153 0.61674,-0.098 1.2335,0.80844 1.85026,2.53871 0.61674,1.73028 1.2335,4.27935 1.85024,7.15062 0.61675,2.87128 1.23349,6.05062 1.85025,8.9225 0.61674,2.87189 1.23349,5.41877 1.85024,7.15062 0.61676,1.73187 1.23351,2.63472 1.85025,2.53871 0.61676,-0.096 1.2335,-1.19577 1.85025,-3.08153 0.61675,-1.88573 1.2335,-4.55132 1.85024,-7.47785 0.61676,-2.92653 1.23352,-6.09921 1.85026,-8.90418 0.61675,-2.80496 1.23351,-5.22465 1.85025,-6.794 0.61674,-1.56934 1.23349,-2.27501 1.85023,-1.98544 0.61676,0.28956 1.23352,1.57819 1.85026,3.61167 0.61677,2.03351 1.23349,4.80463 1.85024,7.77437 0.61677,2.96973 1.2335,6.12275 1.85025,8.84925 0.61675,2.72649 1.23349,5.00909 1.85026,6.40948 0.61674,1.40037 1.23349,1.90598 1.85026,1.42402 0.61673,-0.48196 1.23348,-1.95415 1.85022,-4.12701 0.61675,-2.17285 1.2335,-5.03812 1.85025,-8.03888 0.61676,-3.00079 1.23352,-6.12114 1.85026,-8.75799 0.61675,-2.63684 1.23349,-4.77294 1.85024,-5.99861 0.61676,-1.22564 1.23349,-1.5291 1.85025,-0.85676 0.61676,0.67235 1.2335,2.32207 1.85026,4.62536 0.61674,2.30331 1.23349,5.25099 1.85024,8.27043 0.61675,3.01945 1.23349,6.09434 1.85025,8.6307 0.61673,2.53636 1.2335,4.51719 1.85024,5.56309 0.61676,1.04589 1.23352,1.14594 1.85025,0.28598 0.61675,-0.85997 1.2335,-2.68045 1.85025,-5.10472 0.61675,-2.42429 1.2335,-5.44224 1.85025,-8.46796 l 19.58503,0"
           style="fill:none;fill-rule:evenodd;stroke:#ff0000;stroke-width:4;stroke-linecap:round;stroke-linejoin:miter;stroke-miterlimit:4;stroke-dasharray:none;stroke-opacity:1;marker-end:url(#Arrow1Send);filter:url(#filter12453)" />
        <path
           style="fill:none;fill-rule:evenodd;stroke:#000000;stroke-width:0.83489501px;stroke-linecap:round;stroke-linejoin:miter;stroke-opacity:1;marker-end:url(#marker11759)"
           d="m 399.93866,176.94734 18.45489,0 c 0.61675,-3.02572 1.2335,-6.04252 1.85025,-8.46796 0.61674,-2.42544 1.23349,-4.24288 1.85024,-5.10471 0.61674,-0.86183 1.2335,-0.7581 1.85026,0.28598 0.61674,1.04407 1.2335,3.0278 1.85023,5.56308 0.61676,2.53531 1.23351,5.61114 1.85025,8.63071 0.61676,3.01957 1.23351,5.96587 1.85025,8.27043 0.61676,2.30453 1.2335,3.95113 1.85026,4.62536 0.61675,0.67423 1.23349,0.36711 1.85025,-0.85678 0.61674,-1.22387 1.23348,-3.36271 1.85024,-5.9986 0.61674,-2.6359 1.2335,-5.75696 1.85026,-8.75798 0.61674,-3.00101 1.23349,-5.8647 1.85024,-8.0389 0.61675,-2.17419 1.2335,-3.64313 1.85023,-4.127 0.61677,-0.48386 1.23351,0.0254 1.85025,1.42404 0.61677,1.39865 1.23352,3.68381 1.85027,6.40947 0.61675,2.72567 1.23348,5.87914 1.85023,8.84926 0.61676,2.97012 1.23349,5.73943 1.85026,7.77434 0.61674,2.03492 1.2335,3.32018 1.85026,3.61169 0.61673,0.2915 1.23348,-0.41776 1.85022,-1.98545 0.61675,-1.56768 1.2335,-3.98978 1.85026,-6.79401 0.61674,-2.80423 1.2335,-5.97716 1.85025,-8.90417 0.61674,-2.92701 1.2335,-5.59059 1.85024,-7.47785 0.61676,-1.88727 1.2335,-2.98357 1.85025,-3.08153 0.61674,-0.098 1.2335,0.80844 1.85026,2.53871 0.61674,1.73028 1.2335,4.27935 1.85024,7.15062 0.61675,2.87128 1.23349,6.05062 1.85025,8.9225 0.61674,2.87189 1.23349,5.41877 1.85024,7.15062 0.61676,1.73187 1.23351,2.63472 1.85025,2.53871 0.61676,-0.096 1.2335,-1.19577 1.85025,-3.08153 0.61675,-1.88573 1.2335,-4.55132 1.85024,-7.47785 0.61676,-2.92653 1.23352,-6.09921 1.85026,-8.90418 0.61675,-2.80496 1.23351,-5.22465 1.85025,-6.794 0.61674,-1.56934 1.23349,-2.27501 1.85023,-1.98544 0.61676,0.28956 1.23352,1.57819 1.85026,3.61167 0.61677,2.03351 1.23349,4.80463 1.85024,7.77437 0.61677,2.96973 1.2335,6.12275 1.85025,8.84925 0.61675,2.72649 1.23349,5.00909 1.85026,6.40948 0.61674,1.40037 1.23349,1.90598 1.85026,1.42402 0.61673,-0.48196 1.23348,-1.95415 1.85022,-4.12701 0.61675,-2.17285 1.2335,-5.03812 1.85025,-8.03888 0.61676,-3.00079 1.23352,-6.12114 1.85026,-8.75799 0.61675,-2.63684 1.23349,-4.77294 1.85024,-5.99861 0.61676,-1.22564 1.23349,-1.5291 1.85025,-0.85676 0.61676,0.67235 1.2335,2.32207 1.85026,4.62536 0.61674,2.30331 1.23349,5.25099 1.85024,8.27043 0.61675,3.01945 1.23349,6.09434 1.85025,8.6307 0.61673,2.53636 1.2335,4.51719 1.85024,5.56309 0.61676,1.04589 1.23352,1.14594 1.85025,0.28598 0.61675,-0.85997 1.2335,-2.68045 1.85025,-5.10472 0.61675,-2.42429 1.2335,-5.44224 1.85025,-8.46796 l 19.58503,0"
           id="path11749"
           inkscape:connector-curvature="0"
           sodipodi:nodetypes="ccsssssssssssccssccssssssssscssssscssccssscssscscscc" />
      </g>
      <g
         mask="none"
         id="g12497"
         transform="matrix(0.92414275,0.38204734,-0.38204734,0.92414275,-100.93724,-153.1282)">
        <path
           style="fill:none;fill-rule:evenodd;stroke:#ff0000;stroke-width:4;stroke-linecap:round;stroke-linejoin:miter;stroke-miterlimit:4;stroke-dasharray:none;stroke-opacity:1;marker-end:url(#Arrow1Send);filter:url(#filter12453)"
           d="m 399.93866,176.94734 18.45489,0 c 0.61675,-3.02572 1.2335,-6.04252 1.85025,-8.46796 0.61674,-2.42544 1.23349,-4.24288 1.85024,-5.10471 0.61674,-0.86183 1.2335,-0.7581 1.85026,0.28598 0.61674,1.04407 1.2335,3.0278 1.85023,5.56308 0.61676,2.53531 1.23351,5.61114 1.85025,8.63071 0.61676,3.01957 1.23351,5.96587 1.85025,8.27043 0.61676,2.30453 1.2335,3.95113 1.85026,4.62536 0.61675,0.67423 1.23349,0.36711 1.85025,-0.85678 0.61674,-1.22387 1.23348,-3.36271 1.85024,-5.9986 0.61674,-2.6359 1.2335,-5.75696 1.85026,-8.75798 0.61674,-3.00101 1.23349,-5.8647 1.85024,-8.0389 0.61675,-2.17419 1.2335,-3.64313 1.85023,-4.127 0.61677,-0.48386 1.23351,0.0254 1.85025,1.42404 0.61677,1.39865 1.23352,3.68381 1.85027,6.40947 0.61675,2.72567 1.23348,5.87914 1.85023,8.84926 0.61676,2.97012 1.23349,5.73943 1.85026,7.77434 0.61674,2.03492 1.2335,3.32018 1.85026,3.61169 0.61673,0.2915 1.23348,-0.41776 1.85022,-1.98545 0.61675,-1.56768 1.2335,-3.98978 1.85026,-6.79401 0.61674,-2.80423 1.2335,-5.97716 1.85025,-8.90417 0.61674,-2.92701 1.2335,-5.59059 1.85024,-7.47785 0.61676,-1.88727 1.2335,-2.98357 1.85025,-3.08153 0.61674,-0.098 1.2335,0.80844 1.85026,2.53871 0.61674,1.73028 1.2335,4.27935 1.85024,7.15062 0.61675,2.87128 1.23349,6.05062 1.85025,8.9225 0.61674,2.87189 1.23349,5.41877 1.85024,7.15062 0.61676,1.73187 1.23351,2.63472 1.85025,2.53871 0.61676,-0.096 1.2335,-1.19577 1.85025,-3.08153 0.61675,-1.88573 1.2335,-4.55132 1.85024,-7.47785 0.61676,-2.92653 1.23352,-6.09921 1.85026,-8.90418 0.61675,-2.80496 1.23351,-5.22465 1.85025,-6.794 0.61674,-1.56934 1.23349,-2.27501 1.85023,-1.98544 0.61676,0.28956 1.23352,1.57819 1.85026,3.61167 0.61677,2.03351 1.23349,4.80463 1.85024,7.77437 0.61677,2.96973 1.2335,6.12275 1.85025,8.84925 0.61675,2.72649 1.23349,5.00909 1.85026,6.40948 0.61674,1.40037 1.23349,1.90598 1.85026,1.42402 0.61673,-0.48196 1.23348,-1.95415 1.85022,-4.12701 0.61675,-2.17285 1.2335,-5.03812 1.85025,-8.03888 0.61676,-3.00079 1.23352,-6.12114 1.85026,-8.75799 0.61675,-2.63684 1.23349,-4.77294 1.85024,-5.99861 0.61676,-1.22564 1.23349,-1.5291 1.85025,-0.85676 0.61676,0.67235 1.2335,2.32207 1.85026,4.62536 0.61674,2.30331 1.23349,5.25099 1.85024,8.27043 0.61675,3.01945 1.23349,6.09434 1.85025,8.6307 0.61673,2.53636 1.2335,4.51719 1.85024,5.56309 0.61676,1.04589 1.23352,1.14594 1.85025,0.28598 0.61675,-0.85997 1.2335,-2.68045 1.85025,-5.10472 0.61675,-2.42429 1.2335,-5.44224 1.85025,-8.46796 l 19.58503,0"
           id="path12499"
           inkscape:connector-curvature="0"
           sodipodi:nodetypes="ccsssssssssssccssccssssssssscssssscssccssscssscscscc" />
        <path
           sodipodi:nodetypes="ccsssssssssssccssccssssssssscssssscssccssscssscscscc"
           inkscape:connector-curvature="0"
           id="path12501"
           d="m 399.93866,176.94734 18.45489,0 c 0.61675,-3.02572 1.2335,-6.04252 1.85025,-8.46796 0.61674,-2.42544 1.23349,-4.24288 1.85024,-5.10471 0.61674,-0.86183 1.2335,-0.7581 1.85026,0.28598 0.61674,1.04407 1.2335,3.0278 1.85023,5.56308 0.61676,2.53531 1.23351,5.61114 1.85025,8.63071 0.61676,3.01957 1.23351,5.96587 1.85025,8.27043 0.61676,2.30453 1.2335,3.95113 1.85026,4.62536 0.61675,0.67423 1.23349,0.36711 1.85025,-0.85678 0.61674,-1.22387 1.23348,-3.36271 1.85024,-5.9986 0.61674,-2.6359 1.2335,-5.75696 1.85026,-8.75798 0.61674,-3.00101 1.23349,-5.8647 1.85024,-8.0389 0.61675,-2.17419 1.2335,-3.64313 1.85023,-4.127 0.61677,-0.48386 1.23351,0.0254 1.85025,1.42404 0.61677,1.39865 1.23352,3.68381 1.85027,6.40947 0.61675,2.72567 1.23348,5.87914 1.85023,8.84926 0.61676,2.97012 1.23349,5.73943 1.85026,7.77434 0.61674,2.03492 1.2335,3.32018 1.85026,3.61169 0.61673,0.2915 1.23348,-0.41776 1.85022,-1.98545 0.61675,-1.56768 1.2335,-3.98978 1.85026,-6.79401 0.61674,-2.80423 1.2335,-5.97716 1.85025,-8.90417 0.61674,-2.92701 1.2335,-5.59059 1.85024,-7.47785 0.61676,-1.88727 1.2335,-2.98357 1.85025,-3.08153 0.61674,-0.098 1.2335,0.80844 1.85026,2.53871 0.61674,1.73028 1.2335,4.27935 1.85024,7.15062 0.61675,2.87128 1.23349,6.05062 1.85025,8.9225 0.61674,2.87189 1.23349,5.41877 1.85024,7.15062 0.61676,1.73187 1.23351,2.63472 1.85025,2.53871 0.61676,-0.096 1.2335,-1.19577 1.85025,-3.08153 0.61675,-1.88573 1.2335,-4.55132 1.85024,-7.47785 0.61676,-2.92653 1.23352,-6.09921 1.85026,-8.90418 0.61675,-2.80496 1.23351,-5.22465 1.85025,-6.794 0.61674,-1.56934 1.23349,-2.27501 1.85023,-1.98544 0.61676,0.28956 1.23352,1.57819 1.85026,3.61167 0.61677,2.03351 1.23349,4.80463 1.85024,7.77437 0.61677,2.96973 1.2335,6.12275 1.85025,8.84925 0.61675,2.72649 1.23349,5.00909 1.85026,6.40948 0.61674,1.40037 1.23349,1.90598 1.85026,1.42402 0.61673,-0.48196 1.23348,-1.95415 1.85022,-4.12701 0.61675,-2.17285 1.2335,-5.03812 1.85025,-8.03888 0.61676,-3.00079 1.23352,-6.12114 1.85026,-8.75799 0.61675,-2.63684 1.23349,-4.77294 1.85024,-5.99861 0.61676,-1.22564 1.23349,-1.5291 1.85025,-0.85676 0.61676,0.67235 1.2335,2.32207 1.85026,4.62536 0.61674,2.30331 1.23349,5.25099 1.85024,8.27043 0.61675,3.01945 1.23349,6.09434 1.85025,8.6307 0.61673,2.53636 1.2335,4.51719 1.85024,5.56309 0.61676,1.04589 1.23352,1.14594 1.85025,0.28598 0.61675,-0.85997 1.2335,-2.68045 1.85025,-5.10472 0.61675,-2.42429 1.2335,-5.44224 1.85025,-8.46796 l 19.58503,0"
           style="fill:none;fill-rule:evenodd;stroke:#000000;stroke-width:0.83489501px;stroke-linecap:round;stroke-linejoin:miter;stroke-opacity:1;marker-end:url(#marker11759)" />
      </g>
      <g
         inkscape:export-ydpi="300"
         inkscape:export-xdpi="300"
         inkscape:export-filename="/Users/alansanders/Documents/PhD/Git/Thesis/2_theory/figures/tenom.png"
         id="g12827"
         transform="matrix(0.93839539,0.34556345,0.34556345,-0.93839539,33.552872,330.20457)"
         mask="none">
        <path
           style="fill:none;fill-rule:evenodd;stroke:#ff0000;stroke-width:4;stroke-linecap:round;stroke-linejoin:miter;stroke-miterlimit:4;stroke-dasharray:none;stroke-opacity:1;marker-end:url(#Arrow1Send);filter:url(#filter12453)"
           d="m 399.93866,176.94734 18.45489,0 c 0.61675,-3.02572 1.2335,-6.04252 1.85025,-8.46796 0.61674,-2.42544 1.23349,-4.24288 1.85024,-5.10471 0.61674,-0.86183 1.2335,-0.7581 1.85026,0.28598 0.61674,1.04407 1.2335,3.0278 1.85023,5.56308 0.61676,2.53531 1.23351,5.61114 1.85025,8.63071 0.61676,3.01957 1.23351,5.96587 1.85025,8.27043 0.61676,2.30453 1.2335,3.95113 1.85026,4.62536 0.61675,0.67423 1.23349,0.36711 1.85025,-0.85678 0.61674,-1.22387 1.23348,-3.36271 1.85024,-5.9986 0.61674,-2.6359 1.2335,-5.75696 1.85026,-8.75798 0.61674,-3.00101 1.23349,-5.8647 1.85024,-8.0389 0.61675,-2.17419 1.2335,-3.64313 1.85023,-4.127 0.61677,-0.48386 1.23351,0.0254 1.85025,1.42404 0.61677,1.39865 1.23352,3.68381 1.85027,6.40947 0.61675,2.72567 1.23348,5.87914 1.85023,8.84926 0.61676,2.97012 1.23349,5.73943 1.85026,7.77434 0.61674,2.03492 1.2335,3.32018 1.85026,3.61169 0.61673,0.2915 1.23348,-0.41776 1.85022,-1.98545 0.61675,-1.56768 1.2335,-3.98978 1.85026,-6.79401 0.61674,-2.80423 1.2335,-5.97716 1.85025,-8.90417 0.61674,-2.92701 1.2335,-5.59059 1.85024,-7.47785 0.61676,-1.88727 1.2335,-2.98357 1.85025,-3.08153 0.61674,-0.098 1.2335,0.80844 1.85026,2.53871 0.61674,1.73028 1.2335,4.27935 1.85024,7.15062 0.61675,2.87128 1.23349,6.05062 1.85025,8.9225 0.61674,2.87189 1.23349,5.41877 1.85024,7.15062 0.61676,1.73187 1.23351,2.63472 1.85025,2.53871 0.61676,-0.096 1.2335,-1.19577 1.85025,-3.08153 0.61675,-1.88573 1.2335,-4.55132 1.85024,-7.47785 0.61676,-2.92653 1.23352,-6.09921 1.85026,-8.90418 0.61675,-2.80496 1.23351,-5.22465 1.85025,-6.794 0.61674,-1.56934 1.23349,-2.27501 1.85023,-1.98544 0.61676,0.28956 1.23352,1.57819 1.85026,3.61167 0.61677,2.03351 1.23349,4.80463 1.85024,7.77437 0.61677,2.96973 1.2335,6.12275 1.85025,8.84925 0.61675,2.72649 1.23349,5.00909 1.85026,6.40948 0.61674,1.40037 1.23349,1.90598 1.85026,1.42402 0.61673,-0.48196 1.23348,-1.95415 1.85022,-4.12701 0.61675,-2.17285 1.2335,-5.03812 1.85025,-8.03888 0.61676,-3.00079 1.23352,-6.12114 1.85026,-8.75799 0.61675,-2.63684 1.23349,-4.77294 1.85024,-5.99861 0.61676,-1.22564 1.23349,-1.5291 1.85025,-0.85676 0.61676,0.67235 1.2335,2.32207 1.85026,4.62536 0.61674,2.30331 1.23349,5.25099 1.85024,8.27043 0.61675,3.01945 1.23349,6.09434 1.85025,8.6307 0.61673,2.53636 1.2335,4.51719 1.85024,5.56309 0.61676,1.04589 1.23352,1.14594 1.85025,0.28598 0.61675,-0.85997 1.2335,-2.68045 1.85025,-5.10472 0.61675,-2.42429 1.2335,-5.44224 1.85025,-8.46796 l 19.58503,0"
           id="path12829"
           inkscape:connector-curvature="0"
           sodipodi:nodetypes="ccsssssssssssccssccssssssssscssssscssccssscssscscscc" />
        <path
           sodipodi:nodetypes="ccsssssssssssccssccssssssssscssssscssccssscssscscscc"
           inkscape:connector-curvature="0"
           id="path12831"
           d="m 399.93866,176.94734 18.45489,0 c 0.61675,-3.02572 1.2335,-6.04252 1.85025,-8.46796 0.61674,-2.42544 1.23349,-4.24288 1.85024,-5.10471 0.61674,-0.86183 1.2335,-0.7581 1.85026,0.28598 0.61674,1.04407 1.2335,3.0278 1.85023,5.56308 0.61676,2.53531 1.23351,5.61114 1.85025,8.63071 0.61676,3.01957 1.23351,5.96587 1.85025,8.27043 0.61676,2.30453 1.2335,3.95113 1.85026,4.62536 0.61675,0.67423 1.23349,0.36711 1.85025,-0.85678 0.61674,-1.22387 1.23348,-3.36271 1.85024,-5.9986 0.61674,-2.6359 1.2335,-5.75696 1.85026,-8.75798 0.61674,-3.00101 1.23349,-5.8647 1.85024,-8.0389 0.61675,-2.17419 1.2335,-3.64313 1.85023,-4.127 0.61677,-0.48386 1.23351,0.0254 1.85025,1.42404 0.61677,1.39865 1.23352,3.68381 1.85027,6.40947 0.61675,2.72567 1.23348,5.87914 1.85023,8.84926 0.61676,2.97012 1.23349,5.73943 1.85026,7.77434 0.61674,2.03492 1.2335,3.32018 1.85026,3.61169 0.61673,0.2915 1.23348,-0.41776 1.85022,-1.98545 0.61675,-1.56768 1.2335,-3.98978 1.85026,-6.79401 0.61674,-2.80423 1.2335,-5.97716 1.85025,-8.90417 0.61674,-2.92701 1.2335,-5.59059 1.85024,-7.47785 0.61676,-1.88727 1.2335,-2.98357 1.85025,-3.08153 0.61674,-0.098 1.2335,0.80844 1.85026,2.53871 0.61674,1.73028 1.2335,4.27935 1.85024,7.15062 0.61675,2.87128 1.23349,6.05062 1.85025,8.9225 0.61674,2.87189 1.23349,5.41877 1.85024,7.15062 0.61676,1.73187 1.23351,2.63472 1.85025,2.53871 0.61676,-0.096 1.2335,-1.19577 1.85025,-3.08153 0.61675,-1.88573 1.2335,-4.55132 1.85024,-7.47785 0.61676,-2.92653 1.23352,-6.09921 1.85026,-8.90418 0.61675,-2.80496 1.23351,-5.22465 1.85025,-6.794 0.61674,-1.56934 1.23349,-2.27501 1.85023,-1.98544 0.61676,0.28956 1.23352,1.57819 1.85026,3.61167 0.61677,2.03351 1.23349,4.80463 1.85024,7.77437 0.61677,2.96973 1.2335,6.12275 1.85025,8.84925 0.61675,2.72649 1.23349,5.00909 1.85026,6.40948 0.61674,1.40037 1.23349,1.90598 1.85026,1.42402 0.61673,-0.48196 1.23348,-1.95415 1.85022,-4.12701 0.61675,-2.17285 1.2335,-5.03812 1.85025,-8.03888 0.61676,-3.00079 1.23352,-6.12114 1.85026,-8.75799 0.61675,-2.63684 1.23349,-4.77294 1.85024,-5.99861 0.61676,-1.22564 1.23349,-1.5291 1.85025,-0.85676 0.61676,0.67235 1.2335,2.32207 1.85026,4.62536 0.61674,2.30331 1.23349,5.25099 1.85024,8.27043 0.61675,3.01945 1.23349,6.09434 1.85025,8.6307 0.61673,2.53636 1.2335,4.51719 1.85024,5.56309 0.61676,1.04589 1.23352,1.14594 1.85025,0.28598 0.61675,-0.85997 1.2335,-2.68045 1.85025,-5.10472 0.61675,-2.42429 1.2335,-5.44224 1.85025,-8.46796 l 19.58503,0"
           style="fill:none;fill-rule:evenodd;stroke:#000000;stroke-width:0.83489501px;stroke-linecap:round;stroke-linejoin:miter;stroke-opacity:1;marker-end:url(#marker11759)" />
      </g>
      <g
         mask="none"
         transform="matrix(0.94606518,-0.32397634,0.32397634,0.94606518,-287.45534,306.22555)"
         id="g12852"
         inkscape:export-filename="/Users/alansanders/Documents/PhD/Git/Thesis/2_theory/figures/tenom.png"
         inkscape:export-xdpi="300"
         inkscape:export-ydpi="300">
        <path
           sodipodi:nodetypes="ccsssssssssssccssccssssssssscssssscssccssscssscscscc"
           inkscape:connector-curvature="0"
           id="path12854"
           d="m 399.93866,176.94734 18.45489,0 c 0.61675,-3.02572 1.2335,-6.04252 1.85025,-8.46796 0.61674,-2.42544 1.23349,-4.24288 1.85024,-5.10471 0.61674,-0.86183 1.2335,-0.7581 1.85026,0.28598 0.61674,1.04407 1.2335,3.0278 1.85023,5.56308 0.61676,2.53531 1.23351,5.61114 1.85025,8.63071 0.61676,3.01957 1.23351,5.96587 1.85025,8.27043 0.61676,2.30453 1.2335,3.95113 1.85026,4.62536 0.61675,0.67423 1.23349,0.36711 1.85025,-0.85678 0.61674,-1.22387 1.23348,-3.36271 1.85024,-5.9986 0.61674,-2.6359 1.2335,-5.75696 1.85026,-8.75798 0.61674,-3.00101 1.23349,-5.8647 1.85024,-8.0389 0.61675,-2.17419 1.2335,-3.64313 1.85023,-4.127 0.61677,-0.48386 1.23351,0.0254 1.85025,1.42404 0.61677,1.39865 1.23352,3.68381 1.85027,6.40947 0.61675,2.72567 1.23348,5.87914 1.85023,8.84926 0.61676,2.97012 1.23349,5.73943 1.85026,7.77434 0.61674,2.03492 1.2335,3.32018 1.85026,3.61169 0.61673,0.2915 1.23348,-0.41776 1.85022,-1.98545 0.61675,-1.56768 1.2335,-3.98978 1.85026,-6.79401 0.61674,-2.80423 1.2335,-5.97716 1.85025,-8.90417 0.61674,-2.92701 1.2335,-5.59059 1.85024,-7.47785 0.61676,-1.88727 1.2335,-2.98357 1.85025,-3.08153 0.61674,-0.098 1.2335,0.80844 1.85026,2.53871 0.61674,1.73028 1.2335,4.27935 1.85024,7.15062 0.61675,2.87128 1.23349,6.05062 1.85025,8.9225 0.61674,2.87189 1.23349,5.41877 1.85024,7.15062 0.61676,1.73187 1.23351,2.63472 1.85025,2.53871 0.61676,-0.096 1.2335,-1.19577 1.85025,-3.08153 0.61675,-1.88573 1.2335,-4.55132 1.85024,-7.47785 0.61676,-2.92653 1.23352,-6.09921 1.85026,-8.90418 0.61675,-2.80496 1.23351,-5.22465 1.85025,-6.794 0.61674,-1.56934 1.23349,-2.27501 1.85023,-1.98544 0.61676,0.28956 1.23352,1.57819 1.85026,3.61167 0.61677,2.03351 1.23349,4.80463 1.85024,7.77437 0.61677,2.96973 1.2335,6.12275 1.85025,8.84925 0.61675,2.72649 1.23349,5.00909 1.85026,6.40948 0.61674,1.40037 1.23349,1.90598 1.85026,1.42402 0.61673,-0.48196 1.23348,-1.95415 1.85022,-4.12701 0.61675,-2.17285 1.2335,-5.03812 1.85025,-8.03888 0.61676,-3.00079 1.23352,-6.12114 1.85026,-8.75799 0.61675,-2.63684 1.23349,-4.77294 1.85024,-5.99861 0.61676,-1.22564 1.23349,-1.5291 1.85025,-0.85676 0.61676,0.67235 1.2335,2.32207 1.85026,4.62536 0.61674,2.30331 1.23349,5.25099 1.85024,8.27043 0.61675,3.01945 1.23349,6.09434 1.85025,8.6307 0.61673,2.53636 1.2335,4.51719 1.85024,5.56309 0.61676,1.04589 1.23352,1.14594 1.85025,0.28598 0.61675,-0.85997 1.2335,-2.68045 1.85025,-5.10472 0.61675,-2.42429 1.2335,-5.44224 1.85025,-8.46796 l 19.58503,0"
           style="fill:none;fill-rule:evenodd;stroke:#ff0000;stroke-width:4;stroke-linecap:round;stroke-linejoin:miter;stroke-miterlimit:4;stroke-dasharray:none;stroke-opacity:1;marker-end:url(#Arrow1Send);filter:url(#filter12453)" />
        <path
           style="fill:none;fill-rule:evenodd;stroke:#000000;stroke-width:0.83489501px;stroke-linecap:round;stroke-linejoin:miter;stroke-opacity:1;marker-end:url(#marker11759)"
           d="m 399.93866,176.94734 18.45489,0 c 0.61675,-3.02572 1.2335,-6.04252 1.85025,-8.46796 0.61674,-2.42544 1.23349,-4.24288 1.85024,-5.10471 0.61674,-0.86183 1.2335,-0.7581 1.85026,0.28598 0.61674,1.04407 1.2335,3.0278 1.85023,5.56308 0.61676,2.53531 1.23351,5.61114 1.85025,8.63071 0.61676,3.01957 1.23351,5.96587 1.85025,8.27043 0.61676,2.30453 1.2335,3.95113 1.85026,4.62536 0.61675,0.67423 1.23349,0.36711 1.85025,-0.85678 0.61674,-1.22387 1.23348,-3.36271 1.85024,-5.9986 0.61674,-2.6359 1.2335,-5.75696 1.85026,-8.75798 0.61674,-3.00101 1.23349,-5.8647 1.85024,-8.0389 0.61675,-2.17419 1.2335,-3.64313 1.85023,-4.127 0.61677,-0.48386 1.23351,0.0254 1.85025,1.42404 0.61677,1.39865 1.23352,3.68381 1.85027,6.40947 0.61675,2.72567 1.23348,5.87914 1.85023,8.84926 0.61676,2.97012 1.23349,5.73943 1.85026,7.77434 0.61674,2.03492 1.2335,3.32018 1.85026,3.61169 0.61673,0.2915 1.23348,-0.41776 1.85022,-1.98545 0.61675,-1.56768 1.2335,-3.98978 1.85026,-6.79401 0.61674,-2.80423 1.2335,-5.97716 1.85025,-8.90417 0.61674,-2.92701 1.2335,-5.59059 1.85024,-7.47785 0.61676,-1.88727 1.2335,-2.98357 1.85025,-3.08153 0.61674,-0.098 1.2335,0.80844 1.85026,2.53871 0.61674,1.73028 1.2335,4.27935 1.85024,7.15062 0.61675,2.87128 1.23349,6.05062 1.85025,8.9225 0.61674,2.87189 1.23349,5.41877 1.85024,7.15062 0.61676,1.73187 1.23351,2.63472 1.85025,2.53871 0.61676,-0.096 1.2335,-1.19577 1.85025,-3.08153 0.61675,-1.88573 1.2335,-4.55132 1.85024,-7.47785 0.61676,-2.92653 1.23352,-6.09921 1.85026,-8.90418 0.61675,-2.80496 1.23351,-5.22465 1.85025,-6.794 0.61674,-1.56934 1.23349,-2.27501 1.85023,-1.98544 0.61676,0.28956 1.23352,1.57819 1.85026,3.61167 0.61677,2.03351 1.23349,4.80463 1.85024,7.77437 0.61677,2.96973 1.2335,6.12275 1.85025,8.84925 0.61675,2.72649 1.23349,5.00909 1.85026,6.40948 0.61674,1.40037 1.23349,1.90598 1.85026,1.42402 0.61673,-0.48196 1.23348,-1.95415 1.85022,-4.12701 0.61675,-2.17285 1.2335,-5.03812 1.85025,-8.03888 0.61676,-3.00079 1.23352,-6.12114 1.85026,-8.75799 0.61675,-2.63684 1.23349,-4.77294 1.85024,-5.99861 0.61676,-1.22564 1.23349,-1.5291 1.85025,-0.85676 0.61676,0.67235 1.2335,2.32207 1.85026,4.62536 0.61674,2.30331 1.23349,5.25099 1.85024,8.27043 0.61675,3.01945 1.23349,6.09434 1.85025,8.6307 0.61673,2.53636 1.2335,4.51719 1.85024,5.56309 0.61676,1.04589 1.23352,1.14594 1.85025,0.28598 0.61675,-0.85997 1.2335,-2.68045 1.85025,-5.10472 0.61675,-2.42429 1.2335,-5.44224 1.85025,-8.46796 l 19.58503,0"
           id="path12856"
           inkscape:connector-curvature="0"
           sodipodi:nodetypes="ccsssssssssssccssccssssssssscssssscssccssscssscscscc" />
      </g>
    </g>
  </g>
</svg>
